<svg xmlns="http://www.w3.org/2000/svg" xmlns:xlink="http://www.w3.org/1999/xlink" width="40" zoomAndPan="magnify" viewBox="0 0 30 30.000001" height="40" preserveAspectRatio="xMidYMid meet" version="1.0"><defs><clipPath id="82e73651fd"><path d="M 12.03125 18.894531 L 15.957031 18.894531 L 15.957031 22.820312 L 12.03125 22.820312 Z M 12.03125 18.894531 " clip-rule="nonzero"/></clipPath><clipPath id="846cccc89f"><path d="M 3.847656 6.207031 L 26.347656 6.207031 L 26.347656 21 L 3.847656 21 Z M 3.847656 6.207031 " clip-rule="nonzero"/></clipPath></defs><g clip-path="url(#82e73651fd)"><path fill="#ffffff" d="M 13.988281 21.75 C 13.5 21.75 13.105469 21.351562 13.105469 20.863281 C 13.105469 20.375 13.5 19.980469 13.988281 19.980469 C 14.476562 19.980469 14.875 20.375 14.875 20.863281 C 14.875 21.351562 14.476562 21.75 13.988281 21.75 Z M 15.835938 20.289062 C 15.875 20.273438 15.902344 20.234375 15.886719 20.191406 C 15.839844 20.0625 15.78125 19.9375 15.710938 19.820312 C 15.6875 19.78125 15.640625 19.777344 15.601562 19.800781 C 15.429688 19.902344 15.210938 19.898438 15.046875 19.777344 C 15.011719 19.753906 14.960938 19.699219 14.933594 19.664062 C 14.824219 19.515625 14.808594 19.316406 14.886719 19.152344 C 14.90625 19.113281 14.894531 19.066406 14.855469 19.046875 C 14.734375 18.988281 14.601562 18.941406 14.46875 18.910156 C 14.425781 18.898438 14.386719 18.929688 14.378906 18.972656 C 14.324219 19.191406 14.125 19.355469 13.890625 19.355469 C 13.667969 19.355469 13.484375 19.214844 13.414062 19.019531 C 13.398438 18.976562 13.359375 18.953125 13.316406 18.96875 C 13.1875 19.011719 13.0625 19.074219 12.945312 19.144531 C 12.90625 19.167969 12.902344 19.214844 12.925781 19.253906 C 13.042969 19.445312 13.019531 19.699219 12.851562 19.867188 C 12.695312 20.023438 12.464844 20.054688 12.277344 19.964844 C 12.238281 19.945312 12.191406 19.957031 12.171875 19.996094 C 12.113281 20.121094 12.066406 20.25 12.035156 20.386719 C 12.023438 20.429688 12.054688 20.464844 12.097656 20.476562 C 12.316406 20.53125 12.480469 20.726562 12.480469 20.964844 C 12.480469 21.183594 12.339844 21.371094 12.144531 21.4375 C 12.101562 21.453125 12.078125 21.492188 12.09375 21.535156 C 12.136719 21.667969 12.199219 21.789062 12.269531 21.90625 C 12.292969 21.945312 12.339844 21.953125 12.378906 21.929688 C 12.570312 21.8125 12.828125 21.835938 12.992188 22.003906 C 13.148438 22.15625 13.179688 22.386719 13.089844 22.574219 C 13.074219 22.613281 13.082031 22.660156 13.125 22.679688 C 13.246094 22.738281 13.375 22.785156 13.511719 22.820312 C 13.554688 22.828125 13.589844 22.800781 13.601562 22.757812 C 13.65625 22.539062 13.851562 22.375 14.089844 22.375 C 14.308594 22.375 14.496094 22.511719 14.5625 22.710938 C 14.578125 22.75 14.617188 22.777344 14.660156 22.761719 C 14.792969 22.714844 14.917969 22.65625 15.03125 22.585938 C 15.070312 22.5625 15.078125 22.515625 15.054688 22.476562 C 14.949219 22.304688 14.957031 22.085938 15.074219 21.921875 C 15.101562 21.886719 15.152344 21.835938 15.1875 21.808594 C 15.339844 21.699219 15.535156 21.683594 15.699219 21.761719 C 15.738281 21.78125 15.785156 21.769531 15.804688 21.730469 C 15.863281 21.609375 15.910156 21.476562 15.945312 21.34375 C 15.953125 21.300781 15.925781 21.261719 15.882812 21.253906 C 15.664062 21.199219 15.5 21 15.5 20.765625 C 15.5 20.542969 15.640625 20.359375 15.835938 20.289062 " fill-opacity="1" fill-rule="nonzero"/></g><path fill="#ffffff" d="M 16.566406 19.253906 C 16.199219 19.332031 15.839844 19.101562 15.765625 18.734375 C 15.6875 18.367188 15.917969 18.007812 16.285156 17.933594 C 16.648438 17.855469 17.007812 18.085938 17.085938 18.453125 C 17.164062 18.816406 16.929688 19.175781 16.566406 19.253906 Z M 17.710938 17.871094 C 17.742188 17.851562 17.753906 17.820312 17.734375 17.789062 C 17.679688 17.699219 17.617188 17.617188 17.546875 17.539062 C 17.523438 17.515625 17.484375 17.519531 17.460938 17.542969 C 17.347656 17.648438 17.183594 17.675781 17.042969 17.613281 C 17.011719 17.601562 16.964844 17.570312 16.941406 17.546875 C 16.835938 17.453125 16.792969 17.308594 16.824219 17.171875 C 16.832031 17.140625 16.816406 17.105469 16.785156 17.097656 C 16.683594 17.074219 16.578125 17.058594 16.472656 17.058594 C 16.4375 17.054688 16.414062 17.082031 16.414062 17.117188 C 16.410156 17.289062 16.289062 17.445312 16.109375 17.480469 C 15.945312 17.515625 15.785156 17.441406 15.703125 17.304688 C 15.683594 17.277344 15.652344 17.265625 15.621094 17.28125 C 15.53125 17.339844 15.449219 17.402344 15.371094 17.472656 C 15.347656 17.496094 15.351562 17.53125 15.375 17.558594 C 15.492188 17.683594 15.515625 17.878906 15.417969 18.03125 C 15.324219 18.171875 15.160156 18.230469 15.003906 18.195312 C 14.972656 18.1875 14.9375 18.203125 14.929688 18.234375 C 14.90625 18.335938 14.890625 18.441406 14.886719 18.546875 C 14.886719 18.578125 14.914062 18.601562 14.949219 18.605469 C 15.121094 18.609375 15.277344 18.730469 15.3125 18.910156 C 15.347656 19.074219 15.273438 19.234375 15.136719 19.316406 C 15.109375 19.332031 15.097656 19.367188 15.113281 19.398438 C 15.167969 19.488281 15.234375 19.570312 15.304688 19.644531 C 15.328125 19.671875 15.363281 19.667969 15.390625 19.644531 C 15.515625 19.527344 15.710938 19.503906 15.863281 19.601562 C 16.003906 19.695312 16.0625 19.859375 16.027344 20.015625 C 16.019531 20.046875 16.035156 20.078125 16.066406 20.089844 C 16.167969 20.113281 16.273438 20.125 16.378906 20.128906 C 16.410156 20.132812 16.433594 20.101562 16.4375 20.070312 C 16.441406 19.898438 16.5625 19.742188 16.738281 19.707031 C 16.902344 19.671875 17.066406 19.746094 17.148438 19.878906 C 17.164062 19.910156 17.199219 19.921875 17.226562 19.90625 C 17.320312 19.847656 17.402344 19.785156 17.476562 19.714844 C 17.503906 19.691406 17.5 19.652344 17.476562 19.628906 C 17.371094 19.519531 17.34375 19.351562 17.40625 19.210938 C 17.417969 19.179688 17.449219 19.132812 17.472656 19.109375 C 17.566406 19.003906 17.710938 18.960938 17.847656 18.992188 C 17.878906 19 17.910156 18.984375 17.921875 18.953125 C 17.945312 18.851562 17.957031 18.746094 17.960938 18.640625 C 17.964844 18.605469 17.933594 18.582031 17.902344 18.582031 C 17.726562 18.578125 17.574219 18.457031 17.535156 18.277344 C 17.503906 18.113281 17.578125 17.953125 17.710938 17.871094 " fill-opacity="1" fill-rule="nonzero"/><g clip-path="url(#846cccc89f)"><path fill="#ffffff" d="M 21.699219 10.898438 C 21.613281 10.898438 21.527344 10.898438 21.445312 10.90625 C 21.046875 9.058594 19.421875 7.71875 17.488281 7.71875 C 16.984375 7.71875 16.5 7.808594 16.039062 7.984375 C 15.203125 6.867188 13.902344 6.210938 12.484375 6.210938 C 10.125 6.210938 8.1875 8.058594 8.046875 10.386719 C 5.660156 10.703125 3.847656 12.730469 3.847656 15.183594 C 3.847656 17.855469 6.023438 20.03125 8.691406 20.03125 L 8.730469 20.03125 C 9.023438 20.03125 9.679688 20.03125 10.550781 20.035156 C 10.8125 20.035156 11.023438 19.820312 11.023438 19.558594 C 11.023438 19.296875 10.8125 19.085938 10.550781 19.085938 C 9.679688 19.082031 9.023438 19.082031 8.730469 19.082031 L 8.695312 19.082031 C 6.546875 19.082031 4.796875 17.332031 4.796875 15.183594 C 4.796875 13.085938 6.4375 11.378906 8.535156 11.292969 L 9.007812 11.273438 L 8.988281 10.800781 C 8.988281 10.753906 8.984375 10.703125 8.984375 10.65625 C 8.984375 8.726562 10.554688 7.160156 12.484375 7.160156 C 13.710938 7.160156 14.824219 7.78125 15.464844 8.828125 L 15.695312 9.199219 L 16.085938 9.003906 C 16.523438 8.78125 16.996094 8.667969 17.488281 8.667969 C 19.09375 8.667969 20.421875 9.871094 20.574219 11.472656 L 20.621094 11.976562 L 21.125 11.894531 C 21.316406 11.863281 21.507812 11.847656 21.699219 11.847656 C 23.628906 11.847656 25.195312 13.414062 25.195312 15.34375 C 25.195312 17.320312 23.574219 19.066406 21.730469 19.082031 L 21.675781 19.085938 C 21.582031 19.089844 21.140625 19.09375 19.445312 19.097656 C 19.183594 19.097656 18.972656 19.308594 18.972656 19.570312 C 18.972656 19.832031 19.183594 20.042969 19.445312 20.042969 L 19.445312 20.046875 C 21.191406 20.042969 21.617188 20.035156 21.746094 20.03125 C 24.132812 20.003906 26.144531 17.859375 26.144531 15.34375 C 26.144531 12.890625 24.148438 10.898438 21.699219 10.898438 " fill-opacity="1" fill-rule="nonzero"/></g></svg>