<svg xmlns="http://www.w3.org/2000/svg" xmlns:xlink="http://www.w3.org/1999/xlink" width="40" zoomAndPan="magnify" viewBox="0 0 30 30.000001" height="40" preserveAspectRatio="xMidYMid meet" version="1.0"><defs><clipPath id="bd3a0164ff"><path d="M 0.484375 0 L 29.515625 0 L 29.515625 29.03125 L 0.484375 29.03125 Z M 0.484375 0 " clip-rule="nonzero"/></clipPath></defs><g clip-path="url(#bd3a0164ff)"><path fill="#ffffff" d="M 0.484375 0 L 29.515625 0 L 29.515625 29.03125 L 0.484375 29.03125 Z M 0.484375 0 " fill-opacity="1" fill-rule="nonzero"/><path fill="#ffffff" d="M 0.484375 0 L 29.515625 0 L 29.515625 29.03125 L 0.484375 29.03125 Z M 0.484375 0 " fill-opacity="1" fill-rule="nonzero"/></g><path fill="#141312" d="M 23.714844 10.710938 L 23.714844 18.351562 C 23.714844 21.085938 21.515625 23.300781 18.808594 23.300781 L 11.230469 23.300781 C 8.519531 23.300781 6.324219 21.085938 6.324219 18.351562 L 6.324219 10.710938 C 6.324219 7.980469 8.519531 5.761719 11.230469 5.761719 L 18.808594 5.761719 C 21.515625 5.761719 23.714844 7.980469 23.714844 10.710938 " fill-opacity="1" fill-rule="nonzero"/><path fill="#ffffff" d="M 13.230469 23.300781 L 13.242188 17.035156 L 11.390625 17.035156 L 11.390625 14.804688 L 13.242188 14.804688 L 13.242188 13.503906 L 13.234375 13.503906 L 13.234375 13.316406 C 13.242188 12.746094 13.273438 12.082031 13.457031 11.46875 C 13.648438 10.828125 13.980469 10.320312 14.476562 9.921875 C 14.894531 9.585938 15.402344 9.355469 15.945312 9.261719 C 16.332031 9.195312 16.734375 9.164062 17.175781 9.164062 C 17.695312 9.164062 18.257812 9.207031 18.902344 9.296875 L 19.0625 9.320312 L 19.0625 11.414062 L 18.628906 11.417969 L 17.980469 11.421875 C 17.519531 11.425781 17.039062 11.476562 16.632812 11.824219 C 16.234375 12.167969 16.023438 12.707031 16.027344 13.375 L 16.015625 14.574219 L 16.015625 14.804688 L 18.878906 14.804688 L 18.453125 17.113281 L 16.054688 17.113281 L 16.046875 23.300781 L 13.230469 23.300781 " fill-opacity="1" fill-rule="nonzero"/></svg>