<svg xmlns="http://www.w3.org/2000/svg" xmlns:xlink="http://www.w3.org/1999/xlink" width="40" zoomAndPan="magnify" viewBox="0 0 30 30.000001" height="40" preserveAspectRatio="xMidYMid meet" version="1.0"><defs><clipPath id="a1ff509eed"><path d="M 0.484375 0 L 29.515625 0 L 29.515625 29.03125 L 0.484375 29.03125 Z M 0.484375 0 " clip-rule="nonzero"/></clipPath></defs><g clip-path="url(#a1ff509eed)"><path fill="#ffffff" d="M 0.484375 0 L 29.515625 0 L 29.515625 29.03125 L 0.484375 29.03125 Z M 0.484375 0 " fill-opacity="1" fill-rule="nonzero"/><path fill="#ffffff" d="M 0.484375 0 L 29.515625 0 L 29.515625 29.03125 L 0.484375 29.03125 Z M 0.484375 0 " fill-opacity="1" fill-rule="nonzero"/></g><path fill="#141312" d="M 23.644531 10.652344 L 23.644531 18.414062 C 23.644531 21.113281 21.472656 23.300781 18.796875 23.300781 L 11.101562 23.300781 C 8.425781 23.300781 6.253906 21.113281 6.253906 18.414062 L 6.253906 10.652344 C 6.253906 7.953125 8.425781 5.761719 11.101562 5.761719 L 18.796875 5.761719 C 21.472656 5.761719 23.644531 7.953125 23.644531 10.652344 " fill-opacity="1" fill-rule="nonzero"/><path fill="#ffffff" d="M 15.011719 16.429688 C 13.925781 16.464844 13.03125 15.566406 13.066406 14.46875 C 13.101562 13.472656 13.902344 12.667969 14.886719 12.636719 C 15.972656 12.597656 16.867188 13.5 16.832031 14.59375 C 16.796875 15.589844 15.996094 16.394531 15.011719 16.429688 Z M 14.992188 11.464844 C 13.28125 11.441406 11.882812 12.847656 11.90625 14.574219 C 11.929688 16.230469 13.265625 17.578125 14.90625 17.601562 C 16.617188 17.625 18.015625 16.214844 17.992188 14.488281 C 17.96875 12.832031 16.632812 11.484375 14.992188 11.464844 " fill-opacity="1" fill-rule="nonzero"/><path fill="#ffffff" d="M 19.648438 17.039062 C 19.648438 18.273438 18.660156 19.269531 17.4375 19.269531 L 12.460938 19.269531 C 11.238281 19.269531 10.25 18.273438 10.25 17.039062 L 10.25 12.023438 C 10.25 10.789062 11.238281 9.792969 12.460938 9.792969 L 17.4375 9.792969 C 18.660156 9.792969 19.648438 10.789062 19.648438 12.023438 Z M 17.4375 8.621094 L 12.460938 8.621094 C 10.597656 8.621094 9.089844 10.144531 9.089844 12.023438 L 9.089844 17.039062 C 9.089844 18.917969 10.597656 20.441406 12.460938 20.441406 L 17.4375 20.441406 C 19.300781 20.441406 20.808594 18.917969 20.808594 17.039062 L 20.808594 12.023438 C 20.808594 10.144531 19.300781 8.621094 17.4375 8.621094 " fill-opacity="1" fill-rule="nonzero"/><path fill="#ffffff" d="M 18.085938 10.578125 C 17.605469 10.546875 17.207031 10.945312 17.238281 11.429688 C 17.265625 11.832031 17.585938 12.152344 17.980469 12.179688 C 18.460938 12.210938 18.859375 11.808594 18.828125 11.324219 C 18.804688 10.925781 18.480469 10.601562 18.085938 10.578125 " fill-opacity="1" fill-rule="nonzero"/></svg>