<?xml version="1.0" encoding="UTF-8"?>
<svg version="1.1" xmlns="http://www.w3.org/2000/svg" width="982" height="543">
<path d="M0 0 C4.93980661 4.79866928 6.42673248 8.66966513 6.66851807 15.47154236 C6.68009241 18.05993437 6.67026254 20.64251013 6.64160156 23.23022461 C6.64047206 24.65981006 6.64110895 26.08939783 6.64337158 27.51898193 C6.64451566 31.38435192 6.62105656 35.24922183 6.59307575 39.11447597 C6.56801068 43.15967039 6.56571609 47.20487723 6.56097412 51.25013733 C6.54855929 58.90340488 6.51575804 66.55644292 6.47557616 74.20960957 C6.43081184 82.92541399 6.40885972 91.64122957 6.38879442 100.35712039 C6.34702397 118.27987688 6.27670112 136.20241996 6.1875 154.125 C7.35768173 154.11833817 8.52786346 154.11167633 9.73350525 154.10481262 C20.78249693 154.04389395 31.83145436 153.99897572 42.88057613 153.96956348 C48.56051085 153.95393384 54.24030956 153.93274482 59.92016602 153.89868164 C65.40556226 153.86599201 70.89082799 153.84812668 76.37631416 153.84036827 C78.4650026 153.834842 80.55368421 153.82405063 82.64231682 153.80780983 C85.57672214 153.78590803 88.51059394 153.78303841 91.44506836 153.78442383 C92.30103104 153.773638 93.15699371 153.76285217 94.03889465 153.7517395 C100.63069087 153.78522966 107.06268035 154.79617572 112.45703125 158.81640625 C119.67903957 167.57423406 123.22086126 177.70061723 122.1875 189.125 C120.80433506 197.71703307 118.28375992 205.59499119 111.60546875 211.53125 C107.57392308 214.38905453 103.87279352 215.25153535 99.02398682 215.24525452 C97.79147942 215.24731651 97.79147942 215.24731651 96.53407288 215.24942017 C95.64143234 215.24582489 94.74879181 215.24222961 93.82910156 215.23852539 C92.40908089 215.23874443 92.40908089 215.23874443 90.96037292 215.2389679 C87.8329336 215.23827153 84.70555392 215.23049198 81.578125 215.22265625 C79.40907829 215.22079109 77.24003117 215.21936765 75.07098389 215.21836853 C69.36308631 215.21455106 63.65521418 215.20472731 57.94732666 215.19366455 C52.12244003 215.1834339 46.29754928 215.17886736 40.47265625 215.17382812 C29.04425965 215.16310438 17.61588194 215.14603717 6.1875 215.125 C6.27155779 239.37814898 6.36674881 263.63123245 6.47502708 287.88428593 C6.52505097 299.1465578 6.57149471 310.40882277 6.609375 321.67114258 C6.64241834 331.4926262 6.68231687 341.31405455 6.73029006 351.13547701 C6.75543286 356.33105388 6.77724956 361.52659467 6.79084396 366.72221565 C6.80377604 371.62317948 6.82594783 376.52401877 6.85488319 381.42491341 C6.86387263 383.21337529 6.86962872 385.00185717 6.87171364 386.79034042 C6.6942267 412.60672691 6.6942267 412.60672691 17.4296875 435.41015625 C32.07603404 449.69848098 57.54363693 447.45585648 76.31274414 447.58129883 C102.77133111 447.79134257 102.77133111 447.79134257 111.1875 456.125 C118.94176277 465.85440517 122.08898326 475.72125809 121.1875 488.125 C119.54691949 497.45406377 114.8049077 505.9267211 107.2366333 511.74510193 C99.45564558 516.98486351 91.68089182 517.71252021 82.515625 517.62109375 C81.31677673 517.62254898 80.11792847 517.62400421 78.88275146 517.62550354 C76.35133429 517.62385032 73.81990646 517.61235423 71.28857422 517.59155273 C67.49010421 517.56289685 63.69306038 517.57089962 59.89453125 517.58398438 C25.23182469 517.55439189 -12.47505101 512.52864486 -39.8125 489.125 C-41.07513672 488.06152344 -41.07513672 488.06152344 -42.36328125 486.9765625 C-47.04370577 482.94397279 -47.04370577 482.94397279 -48.8125 481.125 C-48.8125 480.465 -48.8125 479.805 -48.8125 479.125 C-49.4725 479.125 -50.1325 479.125 -50.8125 479.125 C-71.1970806 453.77688769 -74.97314085 422.1287346 -74.95294189 390.61979675 C-74.95553135 388.98498173 -74.95854611 387.35016733 -74.9619453 385.71535379 C-74.96994911 381.25654537 -74.97180112 376.79775311 -74.97254276 372.33893836 C-74.97440473 367.51756022 -74.98195724 362.69619025 -74.98867798 357.87481689 C-75.00221013 347.35265901 -75.00827673 336.83050497 -75.01268864 326.30833983 C-75.01545722 319.73596285 -75.01969544 313.16358732 -75.02419281 306.59121132 C-75.036374 288.38313356 -75.04667868 270.17505696 -75.0500679 251.96697521 C-75.05028747 250.80373783 -75.05050703 249.64050046 -75.05073325 248.44201346 C-75.05095153 247.27607798 -75.05116981 246.1101425 -75.0513947 244.90887564 C-75.05183816 242.54642816 -75.05228472 240.18398068 -75.05273438 237.8215332 C-75.0529558 236.64969037 -75.05317723 235.47784754 -75.05340537 234.27049432 C-75.05735888 215.25542009 -75.07483487 196.24038405 -75.0980939 177.22532459 C-75.12179718 157.6892185 -75.13426912 138.1531316 -75.13543582 118.61701089 C-75.13635264 107.6532799 -75.14210771 96.68959882 -75.16025543 85.72588158 C-75.17564189 76.39799333 -75.1807851 67.07017045 -75.17251733 57.74227192 C-75.16860699 52.98379008 -75.16955955 48.22543995 -75.18357468 43.46697426 C-75.19628887 39.11048486 -75.19513801 34.75422651 -75.18298396 30.39773754 C-75.18102279 28.82262188 -75.18412479 27.24748999 -75.19282833 25.67239716 C-75.28179234 8.4832985 -75.28179234 8.4832985 -69.9375 1.76953125 C-49.31652687 -16.00847684 -21.87126518 -14.58084346 0 0 Z " fill="#007CC4" transform="translate(242.8125,19.875)"/>
<path d="M0 0 C5.17478468 5.12334547 8.43970666 10.3221061 8.5625 17.8125 C6.70783568 30.89276417 0.49124094 43.97571835 -9.4375 52.8125 C-15.82740096 56.74474675 -21.86793349 57.83301485 -29.18359375 56.19921875 C-35.59976812 54.38090217 -41.47392338 51.92700297 -47.4375 49 C-53.90220087 45.84073266 -60.42949713 43.23201411 -67.25 40.9375 C-68.08466797 40.65156982 -68.91933594 40.36563965 -69.77929688 40.07104492 C-81.30854969 36.30595265 -92.60400888 35.42120699 -104.6875 35.4375 C-105.36937378 35.43804382 -106.05124756 35.43858765 -106.75378418 35.43914795 C-125.63847948 35.50837743 -141.06950512 39.05052311 -155.20703125 52.37890625 C-163.34674668 61.25989174 -166.24016247 70.77089514 -165.87109375 82.69140625 C-165.34281861 89.80254923 -162.38018166 95.59491814 -157.59765625 100.82421875 C-148.71509918 108.41104772 -137.00279442 113.2350257 -125.9296875 116.625 C-124.71750549 117.00193748 -124.71750549 117.00193748 -123.48083496 117.38648987 C-111.64246922 121.0293381 -99.69512209 124.31583086 -87.76220703 127.63256836 C-70.25566155 132.50690277 -52.63334483 137.44654745 -36.5625 146.125 C-35.6873877 146.59228516 -34.81227539 147.05957031 -33.91064453 147.54101562 C-12.83951927 159.07042586 5.9626979 177.38908579 13.18359375 200.82861328 C16.4185408 212.26457396 17.769873 223.30909114 17.80273438 235.18847656 C17.81234927 237.279716 17.84339292 239.36993157 17.875 241.4609375 C18.07517263 266.67171227 9.28602006 288.95468455 -7.4375 307.8125 C-8.35789062 308.85857422 -8.35789062 308.85857422 -9.296875 309.92578125 C-23.09794895 324.6410289 -42.23803024 333.88991749 -61.4375 339.25 C-62.22898437 339.47268555 -63.02046875 339.69537109 -63.8359375 339.92480469 C-80.13166936 344.09512408 -96.70641596 345.31344195 -113.46655273 345.20361328 C-116.37075867 345.1875235 -119.27356981 345.20358369 -122.17773438 345.22265625 C-161.55538782 345.26743374 -207.64315423 336.04959768 -236.69140625 307.60546875 C-243.58671552 300.35460025 -247.66554309 293.66418625 -248.0625 283.5 C-247.59460161 271.28538927 -242.96014312 261.50225377 -234.4375 252.8125 C-229.04358465 248.26516329 -223.8076249 247.27691908 -216.890625 247.34375 C-207.20841182 248.65807758 -199.00245954 254.94069711 -191.41015625 260.69921875 C-172.34137171 274.25534547 -150.80726376 281.17939686 -127.4375 281.8125 C-126.7760498 281.83296387 -126.11459961 281.85342773 -125.43310547 281.87451172 C-106.40954124 282.39588234 -82.92630377 282.3433725 -67.4375 269.8125 C-59.81360474 262.16213288 -55.08709546 253.30479754 -54.40625 242.4453125 C-54.54575109 230.69234598 -58.15880924 220.31300529 -66.4375 211.8125 C-87.99726056 195.35020221 -115.44497321 188.83843097 -141.125 181.625 C-174.66633477 172.17545474 -209.88129878 159.93132355 -228.53515625 128.30859375 C-240.01961246 107.20266294 -242.36923975 78.96264071 -236.02392578 55.79345703 C-227.03530318 25.42972523 -210.40423845 2.16257642 -182.29589844 -13.203125 C-133.30173137 -39.15484355 -43.58869953 -36.8002955 0 0 Z " fill="#FED301" transform="translate(964.4375,198.1875)"/>
<path d="M0 0 C0.82239166 0.00182281 1.64478333 0.00364563 2.49209595 0.00552368 C38.97041423 0.14088822 80.95304781 6.92890056 108.375 33.3125 C115.22684318 40.76765013 119.21190753 48.81966972 118.8203125 59.06640625 C117.11865826 71.47057002 111.07165436 83.37683042 101.1015625 91.12890625 C94.27219497 95.81057675 87.53914812 96.58028071 79.375 95.3125 C72.95335202 92.87364008 67.16142155 89.54116882 61.4375 85.75 C38.89898372 71.12650871 5.89486218 69.71929517 -19.8125 75 C-37.46347696 78.98599277 -53.09726385 87.27259815 -63.3125 102.5625 C-71.90275247 116.74913563 -75.76441227 132.18635262 -75.78613281 148.68164062 C-75.79109772 149.59491119 -75.79606262 150.50818176 -75.80117798 151.4491272 C-75.81572127 154.45567597 -75.82259011 157.4621719 -75.828125 160.46875 C-75.83095238 161.50273422 -75.83377975 162.53671844 -75.83669281 163.60203552 C-75.85165728 169.07876844 -75.86090283 174.55547523 -75.86523438 180.03222656 C-75.87070096 185.65248374 -75.89469862 191.27249645 -75.92320633 196.89267731 C-75.94195835 201.24593776 -75.94704505 205.59914095 -75.94857025 209.95243835 C-75.95157131 212.02220489 -75.95951217 214.09197104 -75.97275543 216.16169739 C-76.11311866 239.79366166 -72.70807943 263.5048648 -55.3125 281.1875 C-37.98672589 297.57165595 -13.71986769 301.50591746 9.375 301.3125 C33.83083456 300.62027553 52.43713757 293.60879181 73.125 280.8125 C79.71121088 276.77173977 86.04920823 275.25797551 93.72265625 276.77734375 C104.15022034 279.50108151 111.7493244 285.10430462 117.375 294.3125 C121.61304946 302.94231055 125.25013974 312.01498163 122.76171875 321.69921875 C116.44813164 339.41620107 99.59109265 350.45286882 83.375 358.3125 C73.50391609 362.95333058 63.33093251 366.03468037 52.75 368.625 C51.76201416 368.86758545 50.77402832 369.1101709 49.75610352 369.36010742 C34.88957826 372.80263832 20.34994505 373.66276486 5.15039062 373.62817383 C2.27434859 373.62502664 -0.60064747 373.64852754 -3.4765625 373.67382812 C-47.39886631 373.82230211 -87.13243206 361.40065994 -119.25 330.8125 C-120.425625 329.575 -120.425625 329.575 -121.625 328.3125 C-122.20507812 327.71566406 -122.78515625 327.11882812 -123.3828125 326.50390625 C-146.94006583 301.32997867 -157.74520517 263.7904939 -157.78613281 229.89355469 C-157.79109772 228.89209412 -157.79606262 227.89063354 -157.80117798 226.85882568 C-157.8157 223.56733492 -157.82258758 220.27589246 -157.828125 216.984375 C-157.83095238 215.8493882 -157.83377975 214.7144014 -157.83669281 213.54502106 C-157.85165075 207.52968619 -157.86089965 201.51437505 -157.86523438 195.49902344 C-157.87069097 189.34358454 -157.89466921 183.18836998 -157.92320633 177.03300095 C-157.94201417 172.25058399 -157.94704802 167.46821891 -157.94857025 162.68576813 C-157.95156034 160.4200036 -157.95946224 158.15423916 -157.97275543 155.88851166 C-158.07107063 137.83179318 -157.2020372 119.80804224 -151.8125 102.4375 C-151.55315674 101.5722168 -151.29381348 100.70693359 -151.02661133 99.81542969 C-140.13731276 64.28781793 -119.47175546 35.89315749 -86.5 18.0625 C-73.67920726 11.40282128 -60.02629502 7.07161647 -45.9375 4 C-45.26332031 3.85256348 -44.58914063 3.70512695 -43.89453125 3.55322266 C-29.39554763 0.66897988 -14.74161329 -0.0684871 0 0 Z " fill="#00676D" transform="translate(557.625,169.6875)"/>
<path d="M0 0 C6.10100609 5.97180831 7.06314971 13.68682213 7.25168228 21.91085148 C7.26261156 24.19363915 7.26266736 26.47649535 7.25396729 28.7592926 C7.25708727 30.02315558 7.26020725 31.28701856 7.26342177 32.58918041 C7.27173166 36.07652426 7.26766194 39.56375792 7.26144934 43.05110204 C7.25691024 46.82005565 7.26391579 50.58899078 7.26940918 54.35794067 C7.27828903 61.73285231 7.27638753 69.10772318 7.2705839 76.4826364 C7.26606221 82.47730337 7.2654567 88.47195893 7.26763153 94.46662712 C7.267938 95.32068455 7.26824446 96.17474198 7.26856022 97.05467994 C7.26919968 98.78981329 7.26984811 100.52494663 7.2705054 102.26007997 C7.27620448 118.51908409 7.26965724 134.77806562 7.25890467 151.03706603 C7.24996793 164.98199738 7.25152302 178.92689543 7.26074219 192.87182617 C7.2714495 209.07527033 7.27565688 225.27869471 7.26951766 241.48214191 C7.26888058 243.21049082 7.26825183 244.93883973 7.26763153 246.66718864 C7.2671687 247.94268287 7.2671687 247.94268287 7.26669653 249.24394466 C7.26497109 255.23053686 7.26788139 261.21711649 7.27259064 267.20370674 C7.27820452 274.50051155 7.27667227 281.79727335 7.26602915 289.09407324 C7.26077953 292.81556563 7.25870362 296.53698633 7.26532745 300.25847816 C7.27240318 304.29494465 7.26394403 308.33123072 7.25396729 312.36769104 C7.25842873 313.54055225 7.26289017 314.71341347 7.26748681 315.92181593 C7.21970841 325.8773531 6.14833894 333.62205703 -1 341 C-14.04927728 351.82865457 -28.72281544 353.10594649 -45 352 C-56.3826825 350.46543405 -64.34915549 344.29951866 -71.80859375 335.96875 C-75.83485309 329.31552145 -75.28452142 321.84633038 -75.26069641 314.33609009 C-75.26452196 313.05830732 -75.26834751 311.78052455 -75.27228898 310.46402109 C-75.2825569 306.9284884 -75.28039025 303.39305726 -75.27610838 299.85751629 C-75.27363896 296.04010618 -75.28265802 292.22272039 -75.29014587 288.40531921 C-75.30288895 280.93087437 -75.30468705 273.45646545 -75.30234561 265.98201157 C-75.30056183 259.90578293 -75.30231338 253.82956519 -75.30657005 247.75333786 C-75.30716524 246.88819673 -75.30776043 246.0230556 -75.30837366 245.13169806 C-75.30958542 243.37409938 -75.31079956 241.6165007 -75.31201603 239.85890202 C-75.32289009 223.3795542 -75.32072973 206.90022684 -75.31463119 190.42087786 C-75.30946231 175.35067073 -75.32071692 160.28052824 -75.33972941 145.2103339 C-75.35910932 129.73002283 -75.36736353 114.24974235 -75.36360615 98.76941907 C-75.36169432 90.08090359 -75.36417992 81.39244312 -75.37832069 72.70393753 C-75.39023742 65.30718759 -75.39163612 57.91052653 -75.37953053 50.51377536 C-75.37364384 46.74150759 -75.37253649 42.96940238 -75.38453293 39.19714546 C-75.39739857 35.10392736 -75.38692231 31.01109575 -75.3742218 26.9178772 C-75.38159609 25.73100079 -75.38897037 24.54412439 -75.39656812 23.32128203 C-75.33807315 14.36096474 -74.25041093 6.39378532 -67.9296875 -0.3671875 C-49.51140571 -15.95188747 -18.61429779 -14.20834474 0 0 Z " fill="#A2248E" transform="translate(81,185)"/>
<path d="M0 0 C2.71064034 2.66328484 4.99185943 5.23546524 7.109375 8.39453125 C7.69066162 9.25554443 8.27194824 10.11655762 8.87084961 11.00366211 C9.49096924 11.93057861 10.11108887 12.85749512 10.75 13.8125 C12.09929772 15.81054629 13.44958976 17.8079214 14.80078125 19.8046875 C15.49510254 20.83174805 16.18942383 21.85880859 16.90478516 22.91699219 C20.21181463 27.78312691 23.57192221 32.61174859 26.9375 37.4375 C27.5967749 38.38351074 28.2560498 39.32952148 28.93530273 40.30419922 C30.27717321 42.22907354 31.61937795 44.15371488 32.96191406 46.078125 C36.41530135 51.0290281 39.86439289 55.98291846 43.3125 60.9375 C43.98531006 61.90421631 44.65812012 62.87093262 45.35131836 63.86694336 C49.08380801 69.23357614 52.80283717 74.60897665 56.5 80 C61.14141163 86.76756456 65.81652296 93.51148523 70.5 100.25 C71.19544922 101.25160156 71.89089844 102.25320313 72.60742188 103.28515625 C73.26291016 104.22746094 73.91839844 105.16976562 74.59375 106.140625 C75.17833984 106.98141602 75.76292969 107.82220703 76.36523438 108.68847656 C77.88550179 110.96963982 77.88550179 110.96963982 79.57713318 112.60313416 C81.68227236 116.14931017 81.42294444 119.65329378 81.40063477 123.66137695 C81.41110336 124.97210426 81.41110336 124.97210426 81.42178345 126.30931091 C81.44179621 129.20239868 81.44126025 132.09513029 81.44140625 134.98828125 C81.45318505 137.00930231 81.4665505 139.0303147 81.48143005 141.05131531 C81.51766952 146.38354819 81.5378205 151.71570436 81.55297852 157.04803467 C81.5777551 165.54274876 81.61799786 174.03729271 81.67487907 182.53185081 C81.69101898 185.48004133 81.69497018 188.42806806 81.69789124 191.376297 C81.59306763 216.8176003 81.59306763 216.8176003 92.2421875 239.28515625 C106.88853404 253.57348098 132.35613693 251.33085648 151.12524414 251.45629883 C177.58383111 251.66634257 177.58383111 251.66634257 186 260 C193.75426277 269.72940517 196.90148326 279.59625809 196 292 C194.35941949 301.32906377 189.6174077 309.8017211 182.0491333 315.62010193 C174.26814558 320.85986351 166.49339182 321.58752021 157.328125 321.49609375 C156.12927673 321.49754898 154.93042847 321.49900421 153.69525146 321.50050354 C151.16383429 321.49885032 148.63240646 321.48735423 146.10107422 321.46655273 C142.30260421 321.43789685 138.50556038 321.44589962 134.70703125 321.45898438 C100.04432469 321.42939189 62.33744899 316.40364486 35 293 C33.73736328 291.93652344 33.73736328 291.93652344 32.44921875 290.8515625 C27.76879423 286.81897279 27.76879423 286.81897279 26 285 C26 284.34 26 283.68 26 283 C25.34 283 24.68 283 24 283 C2.53241985 256.30518379 -0.17660795 223.12947791 -0.11352539 190.1550293 C-0.11324285 188.07432049 -0.11340256 185.99361158 -0.1139679 183.91290283 C-0.11425326 178.30020644 -0.10839883 172.68753169 -0.10139394 167.07484031 C-0.09511684 161.19587551 -0.09455317 155.31691014 -0.09336853 149.4379425 C-0.09026802 138.32129856 -0.08207195 127.20466451 -0.07201904 116.08802491 C-0.06081807 103.42532966 -0.05533743 90.76263392 -0.05032361 78.09993494 C-0.03988821 52.06661781 -0.02231366 26.03330946 0 0 Z " fill="#A2238E" transform="translate(168,216)"/>
<path d="M0 0 C5.17478468 5.12334547 8.43970666 10.3221061 8.5625 17.8125 C6.70783568 30.89276417 0.49124094 43.97571835 -9.4375 52.8125 C-15.82740096 56.74474675 -21.86793349 57.83301485 -29.18359375 56.19921875 C-35.59976812 54.38090217 -41.47392338 51.92700297 -47.4375 49 C-53.90220087 45.84073266 -60.42949713 43.23201411 -67.25 40.9375 C-68.08466797 40.65156982 -68.91933594 40.36563965 -69.77929688 40.07104492 C-81.30854969 36.30595265 -92.60400888 35.42120699 -104.6875 35.4375 C-105.71031067 35.43831573 -105.71031067 35.43831573 -106.75378418 35.43914795 C-125.63847948 35.50837743 -141.06950512 39.05052311 -155.20703125 52.37890625 C-163.34674668 61.25989174 -166.24016247 70.77089514 -165.87109375 82.69140625 C-165.34281861 89.80254923 -162.38018166 95.59491814 -157.59765625 100.82421875 C-144.66059466 111.87410821 -127.1950951 116.57136367 -111.15625 121 C-109.8878125 121.350625 -108.619375 121.70125 -107.3125 122.0625 C-106.19617188 122.35640625 -105.07984375 122.6503125 -103.9296875 122.953125 C-101.4375 123.8125 -101.4375 123.8125 -100.4375 125.8125 C-101.2283783 127.87527466 -101.2283783 127.87527466 -102.52709961 130.44580078 C-103.00767319 131.40664581 -103.48824677 132.36749084 -103.98338318 133.35745239 C-104.51351517 134.39707123 -105.04364716 135.43669006 -105.58984375 136.5078125 C-106.12396378 137.57039276 -106.6580838 138.63297302 -107.20838928 139.72775269 C-108.9231519 143.13481221 -110.64893376 146.53615531 -112.375 149.9375 C-113.53653504 152.24051852 -114.697352 154.54389935 -115.85742188 156.84765625 C-118.70911589 162.50684125 -121.56988657 168.16136654 -124.4375 173.8125 C-127.43040848 170.91320383 -129.44497296 168.33001036 -131.375 164.625 C-131.88933594 163.65304687 -132.40367187 162.68109375 -132.93359375 161.6796875 C-133.67802734 160.26042969 -133.67802734 160.26042969 -134.4375 158.8125 C-137.41601046 153.3262467 -140.53990972 147.94884138 -143.7734375 142.609375 C-145.68822802 139.39108859 -147.53214963 136.13471523 -149.375 132.875 C-151.82459981 128.54813134 -154.36056896 124.30016938 -157.0625 120.125 C-160.48048837 114.83488618 -163.47760936 109.36849584 -166.4375 103.8125 C-169.40013725 98.28709065 -172.57635589 93.05115125 -176.09765625 87.86328125 C-177.7849223 85.28073117 -179.10511691 82.59312558 -180.4375 79.8125 C-184.47291977 72.26801956 -188.87181434 64.94124866 -193.38671875 57.67578125 C-197.06663929 51.75286153 -200.57271988 45.80127818 -203.859375 39.65234375 C-206.31960581 35.22514623 -209.01313057 30.9505931 -211.703125 26.66015625 C-212.27546875 25.72042969 -212.8478125 24.78070313 -213.4375 23.8125 C-213.86546875 23.13058594 -214.2934375 22.44867188 -214.734375 21.74609375 C-215.70617692 19.07363846 -215.21565585 17.52726355 -214.4375 14.8125 C-213.01049805 12.94726562 -213.01049805 12.94726562 -211.19921875 11.21875 C-210.54373047 10.58066406 -209.88824219 9.94257813 -209.21289062 9.28515625 C-208.17938477 8.30869141 -208.17938477 8.30869141 -207.125 7.3125 C-205.77249074 6.01275276 -204.42217237 4.71072125 -203.07421875 3.40625 C-202.43291016 2.7882251 -201.79160156 2.1702002 -201.13085938 1.53344727 C-199.28584466 -0.26941539 -199.28584466 -0.26941539 -197.38671875 -2.87890625 C-194.86552506 -5.86492924 -191.90316261 -7.68984962 -188.5625 -9.625 C-187.89831055 -10.01333008 -187.23412109 -10.40166016 -186.54980469 -10.80175781 C-137.05225254 -39.1565492 -44.9660053 -37.96310284 0 0 Z " fill="#FEF23D" transform="translate(964.4375,198.1875)"/>
<path d="M0 0 C9.6235869 6.92490909 15.41580317 17.74575782 17.3125 29.375 C18.07408988 38.36176063 15.19991027 45.21423385 9.8125 52.375 C-6.38882398 71.40559931 -29.59692098 80.88168564 -53.3125 86.6875 C-54.30048584 86.93008545 -55.28847168 87.1726709 -56.30639648 87.42260742 C-71.17292174 90.86513832 -85.71255495 91.72526486 -100.91210938 91.69067383 C-103.78815141 91.68752664 -106.66314747 91.71102754 -109.5390625 91.73632812 C-129.41871586 91.80417062 -149.72982592 89.69422469 -168.6875 83.375 C-165.32379141 67.57086681 -161.3808245 51.91774436 -157.4375 36.25 C-156.78075613 33.63423841 -156.12474461 31.01829333 -155.46875 28.40234375 C-153.8775275 22.05925905 -152.28360727 15.71685721 -150.6875 9.375 C-146.67949757 10.12443633 -143.12278258 11.2845067 -139.3125 12.75 C-114.6153714 21.77933797 -82.08762933 23.12612587 -57.6875 12.375 C-49.17361033 8.36110787 -40.94085464 3.82540325 -32.9375 -1.125 C-22.01657636 -7.82518539 -10.66610012 -6.54139019 0 0 Z " fill="#00A894" transform="translate(663.6875,451.625)"/>
<path d="M0 0 C2.60296926 2.60296926 3.23128181 5.40919601 4.25561523 8.84863281 C4.47256168 9.56149413 4.68950813 10.27435545 4.91302872 11.00881863 C5.63740418 13.40427376 6.34950712 15.80310152 7.05859375 18.203125 C7.30606668 19.03801767 7.55353962 19.87291035 7.80851173 20.7331028 C20.90917953 65.09111472 29.79585593 108.33065051 34.68502808 154.26173401 C36.77351906 173.71881333 39.24878137 193.12275608 41.74255228 212.53123212 C42.08926381 215.22986104 42.43550687 217.92854968 42.7816124 220.62725639 C43.82960197 228.79775853 44.87908651 236.96806775 45.92988169 245.13820952 C47.99031768 261.15915703 50.04673488 277.18060248 52.07594353 293.20553958 C52.69078702 298.05999479 53.31051185 302.91379022 53.93421137 307.76711518 C54.31737265 310.75809147 54.69578482 313.74965427 55.0728364 316.74140632 C55.24681088 318.11448936 55.42266914 319.48733536 55.60063124 320.85990727 C56.52005677 327.96017382 57.20572403 334.83793181 57 342 C43.81905321 345.82722032 27.5029511 346.08154989 15 340 C7.79266613 335.58154342 0.71337787 329.64180465 -1.5797267 321.26626217 C-2.4933575 316.33964202 -2.27263431 311.30911566 -2.25396729 306.31590271 C-2.25864726 304.39605351 -2.25864726 304.39605351 -2.26342177 302.43741947 C-2.27175398 298.89609011 -2.2676517 295.35486885 -2.26144934 291.81353915 C-2.25691945 287.99005511 -2.26391124 284.1665895 -2.26940918 280.34310913 C-2.27829883 272.85763538 -2.27638315 265.37220175 -2.2705839 257.88672643 C-2.26606607 251.8033217 -2.26545503 245.71992822 -2.26763153 239.63652229 C-2.267938 238.77051499 -2.26824446 237.90450769 -2.26856022 237.01225774 C-2.26919967 235.25296187 -2.2698481 233.49366599 -2.2705054 231.73437012 C-2.27620735 215.24080422 -2.26965274 198.74726055 -2.25890467 182.2536983 C-2.2499677 168.10116859 -2.25152266 153.94867169 -2.26074219 139.79614258 C-2.27144447 123.35980742 -2.27565971 106.92349174 -2.26951766 90.48715359 C-2.26888056 88.73465638 -2.26825182 86.98215916 -2.26763153 85.22966194 C-2.26732298 84.36740461 -2.26701443 83.50514729 -2.26669653 82.61676095 C-2.26496958 76.540085 -2.26788466 70.4634214 -2.27259064 64.38674736 C-2.27819892 56.98223956 -2.27668405 49.57777417 -2.26602915 42.17327123 C-2.26077199 38.39533342 -2.25871648 34.61746633 -2.26532745 30.83952904 C-2.27238353 26.74532897 -2.26395979 22.65130756 -2.25396729 18.55711365 C-2.25842873 17.36149872 -2.26289017 16.16588379 -2.26748681 14.9340381 C-2.24206826 9.58308984 -2.21453813 4.98472376 0 0 Z " fill="#CE128B" transform="translate(8,193)"/>
<path d="M0 0 C4.46037278 4.33293356 6.3991689 8.21745621 6.66851807 14.37059021 C6.68004256 16.43641922 6.66963941 18.50244435 6.64160156 20.56811523 C6.64218567 21.70055161 6.64276978 22.83298798 6.64337158 23.9997406 C6.64059372 27.72800775 6.60951404 31.45546694 6.578125 35.18359375 C6.5706616 37.77433333 6.56496913 40.36507856 6.56097412 42.95582581 C6.54728278 49.06854067 6.51578515 55.18092407 6.47557616 61.29351431 C6.43077627 68.25601847 6.40885085 75.21853681 6.38879442 82.18114936 C6.34704968 96.4959206 6.27674917 110.81045005 6.1875 125.125 C-34.95194345 141.59227533 -34.95194345 141.59227533 -49.71459961 147.44433594 C-51.54783815 148.17177683 -53.38048636 148.9007066 -55.21264648 149.63085938 C-57.95429422 150.72328789 -60.69762791 151.81137338 -63.44140625 152.8984375 C-64.26185928 153.22637299 -65.08231232 153.55430847 -65.92762756 153.8921814 C-71.58425626 156.125 -71.58425626 156.125 -73.8125 156.125 C-74.01336481 137.4880538 -74.19663907 118.85101331 -74.35908794 100.21369171 C-74.43492735 91.55967444 -74.51647887 82.90578201 -74.61157227 74.25195312 C-74.69446023 66.70753253 -74.76653427 59.16309853 -74.82573253 51.6184535 C-74.85744004 47.62518768 -74.89448752 43.63213542 -74.94449425 39.63905334 C-74.9914414 35.87661899 -75.02387081 32.11433216 -75.0454216 28.35166931 C-75.06076081 26.32060549 -75.09126506 24.2896737 -75.12229919 22.25878906 C-75.14953296 14.49754872 -74.95161854 8.06851767 -69.9375 1.76953125 C-49.31652687 -16.00847684 -21.87126518 -14.58084346 0 0 Z " fill="#005BA9" transform="translate(242.8125,19.875)"/>
<path d="M0 0 C5.34586871 2.82858643 10.1542217 6.23801425 14.96484375 9.88671875 C34.13612071 23.51570802 55.51092718 30.14501559 78.9375 31 C78.9375 31.33 78.9375 31.66 78.9375 32 C75.3075 32.33 71.6775 32.66 67.9375 33 C69.27184082 33.48654053 70.60618164 33.97308105 71.98095703 34.47436523 C98.4234335 44.11791152 124.85426391 53.79135813 151.24853516 63.56616211 C153.0419864 64.23032161 154.83544321 64.8944661 156.62890625 65.55859375 C157.46232544 65.86723862 158.29574463 66.17588348 159.15441895 66.49388123 C165.0741571 68.68458618 171.00024201 70.85715917 176.9375 73 C176.9375 73.66 176.9375 74.32 176.9375 75 C166.57295259 80.40187516 156.23924235 85.33873479 144.9375 88.4375 C144.14714355 88.65937988 143.35678711 88.88125977 142.54248047 89.10986328 C126.24985107 93.28968138 109.66700719 94.50093162 92.90844727 94.39111328 C90.00424133 94.3750235 87.10143019 94.39108369 84.19726562 94.41015625 C44.81961218 94.45493374 -1.26815423 85.23709768 -30.31640625 56.79296875 C-37.21171552 49.54210025 -41.29054309 42.85168625 -41.6875 32.6875 C-41.21960161 20.47288927 -36.58514312 10.68975377 -28.0625 2 C-19.60991422 -5.12594675 -9.58740254 -4.64587788 0 0 Z " fill="#B1D135" transform="translate(758.0625,449)"/>
<path d="M0 0 C0 3 0 3 -1.39282227 4.63818359 C-2.34499634 5.50950928 -2.34499634 5.50950928 -3.31640625 6.3984375 C-3.99767578 7.04296875 -4.67894531 7.6875 -5.38085938 8.3515625 C-6.83350414 9.69886776 -8.29184981 11.04005272 -9.75585938 12.375 C-10.77583008 13.34566406 -10.77583008 13.34566406 -11.81640625 14.3359375 C-12.45006104 14.91907715 -13.08371582 15.5022168 -13.73657227 16.10302734 C-15.27233346 17.98013863 -15.27233346 17.98013863 -14.77172852 20.57446289 C-13.90675283 23.29307517 -12.77706028 25.57702951 -11.375 28.0625 C-10.83488281 29.02414063 -10.29476562 29.98578125 -9.73828125 30.9765625 C-6.85050626 35.99934417 -3.93726706 41.00600328 -1 46 C0.16747491 47.9995283 1.33414426 49.99952718 2.5 52 C3.0775 52.99 3.655 53.98 4.25 55 C16.5 76 16.5 76 18.25390625 79.0078125 C19.40625386 80.98252899 20.55987354 82.95650377 21.71484375 84.9296875 C24.48141355 89.65983178 27.2301148 94.39803547 29.93237305 99.1652832 C32.90279681 104.40266628 35.94386218 109.57344225 39.125 114.6875 C42.07749047 119.43790782 44.80034552 124.25716772 47.4375 129.1875 C49.82391671 133.48305008 52.45360639 137.62264797 55.05078125 141.79296875 C57.38315693 145.63040449 59.5136094 149.55396377 61.6328125 153.51171875 C63.23416525 156.42618076 64.98608193 159.2184007 66.76953125 162.0234375 C72.95584516 171.96081794 72.95584516 171.96081794 74 177 C70.92230652 180.61827196 67.66990883 183.75262921 63 185 C55.73362829 184.68976443 48.73315196 181.51793097 42 179 C40.36380246 178.43737769 38.72583987 177.87985543 37.0859375 177.328125 C8.97979394 167.68246939 -16.38806938 153.85354806 -31 127 C-42.51731147 103.24374101 -42.03325843 73.59803253 -33.74365234 48.94775391 C-26.91416846 29.70312056 -16.23444584 12.70106645 0 0 Z " fill="#B2D134" transform="translate(765,196)"/>
<path d="M0 0 C0.84237213 -0.00067474 1.68474426 -0.00134949 2.55264282 -0.00204468 C39.18317035 0.04443249 81.32072519 6.73908844 108.875 33.25 C115.72684318 40.70515013 119.71190753 48.75716972 119.3203125 59.00390625 C117.61865826 71.40807002 111.57165436 83.31433042 101.6015625 91.06640625 C94.77219497 95.74807675 88.03914812 96.51778071 79.875 95.25 C73.45335202 92.81114008 67.66142155 89.47866882 61.9375 85.6875 C55.33972879 81.35141019 47.32357142 78.73285714 39.875 76.25 C38.57469177 74.9296875 38.57469177 74.9296875 37.11889648 73.125 C31.15665804 66.10669027 24.49188602 59.74445451 17.97265625 53.25 C16.52512566 51.80433728 15.07781776 50.35845154 13.63072205 48.91235352 C9.84363523 45.12906281 6.05355368 41.34878639 2.26281738 37.56915283 C-1.61372884 33.70288355 -5.48740324 29.83373925 -9.36132812 25.96484375 C-16.946428 18.39042988 -24.53469819 10.81920076 -32.125 3.25 C-22.72079449 -1.62892522 -10.38318356 0.00747475 0 0 Z " fill="#72BE44" transform="translate(557.125,169.75)"/>
<path d="M0 0 C1.88674884 1.75323607 3.69704094 3.56287814 5.49812889 5.40406609 C6.53797935 6.44304039 6.53797935 6.44304039 7.5988369 7.50300407 C9.88631913 9.7932715 12.15931022 12.09737784 14.43245506 14.40186882 C16.01627271 15.99314724 17.6009762 17.58354443 19.18652916 19.1730938 C23.35630215 23.35813571 27.51392357 27.55505082 31.6691494 31.75452995 C35.91176999 36.03807549 40.1657434 40.31031319 44.41878319 44.58350945 C52.76133002 52.96894946 61.09108649 61.36697329 69.41292381 69.77296257 C65.77225029 70.80776303 63.34449329 70.56674501 59.60433006 69.85890007 C52.16074221 68.62713013 44.88541261 68.38808586 37.35042381 68.39796257 C36.67716057 68.39817406 36.00389732 68.39838554 35.31023216 68.39860344 C12.9914231 68.46821466 -9.63439084 72.66034667 -26.08707619 89.02296257 C-27.26081216 90.26632695 -28.42822262 91.51571577 -29.58707619 92.77296257 C-30.58254111 93.77747717 -31.58096015 94.77911624 -32.58707619 95.77296257 C-33.20969337 94.87770866 -33.20969337 94.87770866 -33.84488869 93.96436882 C-38.69276566 87.13880145 -43.88988 80.68477746 -49.23771095 74.24806023 C-53.39582167 69.23795478 -57.45922171 64.167553 -61.45768166 59.02955437 C-65.60957513 53.70769312 -69.8752117 48.48099655 -74.17325783 43.27662468 C-77.21628968 39.56569122 -79.99837333 35.81508173 -82.58707619 31.77296257 C-68.30601822 19.83489067 -18.62029584 -14.39615826 0 0 Z " fill="#00A78D" transform="translate(527.5870761871338,174.22703742980957)"/>
<path d="M0 0 C0.82846436 0.36335449 1.65692871 0.72670898 2.51049805 1.10107422 C15.17641937 6.61369224 27.0847481 8.09100329 40.8125 8.2109375 C42.64844665 8.23899105 44.48438404 8.2676554 46.3203125 8.296875 C49.16373576 8.33809826 52.00698317 8.37506459 54.85058594 8.40136719 C57.62990138 8.42918912 60.40847653 8.47502802 63.1875 8.5234375 C64.02321533 8.52669037 64.85893066 8.52994324 65.7199707 8.53329468 C74.51874538 8.7137323 83.56234562 10.62545988 90 17 C97.75426277 26.72940517 100.90148326 36.59625809 100 49 C98.35961237 58.32796694 93.61796365 66.80431543 86.048172 72.6199646 C78.1802895 77.92125589 70.34689058 78.57690417 61.08203125 78.4609375 C59.86658127 78.46002106 58.65113129 78.45910461 57.39884949 78.4581604 C54.83804398 78.45214582 52.27724479 78.43646495 49.71655273 78.41162109 C45.84136351 78.37527075 41.96713842 78.37060142 38.09179688 78.37109375 C25.93565668 78.33526698 13.97949432 78.24091714 2 76 C1.70949914 68.55188709 1.42545208 61.10354637 1.14550781 53.6550293 C1.04992429 51.13088652 0.95296198 48.6067955 0.85449219 46.08276367 C0.25596223 30.71336943 -0.15101513 15.38151995 0 0 Z " fill="#00534F" transform="translate(264,459)"/>
<path d="M0 0 C9.383127 7.09382475 15.52622164 15.4305662 18.5625 26.875 C18.624375 27.844375 18.68625 28.81375 18.75 29.8125 C18.80027344 30.54855469 18.85054688 31.28460938 18.90234375 32.04296875 C19.34792057 43.53885065 15.21750354 53.20446347 7.93359375 62.0078125 C-1.17742368 71.6894189 -11.91313063 76.74898812 -25.11987305 77.21484375 C-40.45568581 77.43006225 -51.69398396 73.11894831 -62.9375 62.625 C-71.60039611 53.6738464 -74.60086363 44.66958384 -74.63061523 32.51928711 C-74.40191638 21.67160649 -70.2118026 13.79375499 -62.6953125 6.06640625 C-45.55732154 -9.73011258 -19.90755205 -12.91138368 0 0 Z " fill="#0072BA" transform="translate(74.25,7.1875)"/>
<path d="M0 0 C0.33 0 0.66 0 1 0 C1.01213028 0.90843407 1.01213028 0.90843407 1.02450562 1.83522034 C1.11142557 8.21219784 1.21095213 14.58889514 1.31738281 20.96557617 C1.35536331 23.33662156 1.3902664 25.70771853 1.421875 28.07885742 C0.80756569 58.58942521 0.80756569 58.58942521 14 85 C14.66 85.33 15.32 85.66 16 86 C17.485 123.62 17.485 123.62 19 162 C15.78966121 163.07011293 14.85948546 162.95213325 11.67578125 162.21484375 C10.82000488 162.01721436 9.96422852 161.81958496 9.08251953 161.6159668 C8.16841309 161.39207275 7.25430664 161.16817871 6.3125 160.9375 C5.37003418 160.70780518 4.42756836 160.47811035 3.45654297 160.24145508 C-14.1669304 155.80349249 -31.06859574 148.92571571 -45 137 C-45.76570312 136.4121875 -46.53140625 135.824375 -47.3203125 135.21875 C-48.06023437 134.6309375 -48.80015625 134.043125 -49.5625 133.4375 C-50.55443359 132.66212891 -50.55443359 132.66212891 -51.56640625 131.87109375 C-53.62983932 129.17794813 -53.23717397 127.34334734 -53 124 C-52.07641602 121.19970703 -52.07641602 121.19970703 -50.75390625 118.2578125 C-50.25584473 117.13181641 -49.7577832 116.00582031 -49.24462891 114.84570312 C-48.83630829 113.94283569 -48.83630829 113.94283569 -48.41973877 113.02172852 C-47.22182446 110.37122051 -46.04974544 107.70950856 -44.87561035 105.04840088 C-44.23967974 103.60756522 -43.60252427 102.16726964 -42.9642334 100.72747803 C-39.61377986 93.16163619 -36.37846384 85.54819663 -33.15301514 77.92840576 C-31.38993031 73.76359807 -29.62237256 69.60068857 -27.85546875 65.4375 C-27.48226501 64.55782562 -27.10906128 63.67815125 -26.72454834 62.77182007 C-21.57097539 50.62705408 -16.39799791 38.49053932 -11.22701263 26.35317993 C-9.92290876 23.29212805 -8.61893559 20.23102049 -7.31494141 17.16992188 C-4.87679555 11.44654303 -2.4384764 5.72323803 0 0 Z " fill="#522E90" transform="translate(248,372)"/>
<path d="M0 0 C12.23098849 -0.06963091 24.46192951 -0.12287779 36.69307613 -0.15543652 C42.37301085 -0.17106616 48.05280956 -0.19225518 53.73266602 -0.22631836 C59.21806226 -0.25900799 64.70332799 -0.27687332 70.18881416 -0.28463173 C72.2775026 -0.290158 74.36618421 -0.30094937 76.45481682 -0.31719017 C79.38922214 -0.33909197 82.32309394 -0.34196159 85.25756836 -0.34057617 C86.11353104 -0.351362 86.96949371 -0.36214783 87.85139465 -0.3732605 C94.44319087 -0.33977034 100.87518035 0.67117572 106.26953125 4.69140625 C113.49153957 13.44923406 117.03336126 23.57561723 116 35 C114.61683506 43.59203307 112.09625992 51.46999119 105.41796875 57.40625 C101.38642308 60.26405453 97.68529352 61.12653535 92.83648682 61.12025452 C91.60397942 61.12231651 91.60397942 61.12231651 90.34657288 61.12442017 C89.45393234 61.12082489 88.56129181 61.11722961 87.64160156 61.11352539 C86.22158089 61.11374443 86.22158089 61.11374443 84.77287292 61.1139679 C81.6454336 61.11327153 78.51805392 61.10549198 75.390625 61.09765625 C73.22157829 61.09579109 71.05253117 61.09436765 68.88348389 61.09336853 C63.17558631 61.08955106 57.46771418 61.07972731 51.75982666 61.06866455 C45.93494003 61.0584339 40.11004928 61.05386736 34.28515625 61.04882812 C22.85675965 61.03810438 11.42838194 61.02103717 0 61 C0 60.67 0 60.34 0 60 C5.28 60 10.56 60 16 60 C16.04898437 58.4221875 16.09796875 56.844375 16.1484375 55.21875 C16.74680771 37.11701468 17.79844767 19.06994713 19 1 C12.73 1 6.46 1 0 1 C0 0.67 0 0.34 0 0 Z " fill="#008B86" transform="translate(249,174)"/>
<path d="M0 0 C7.41258265 8.02745126 6.58628503 17.23970872 6.84448242 27.51147461 C6.90601567 29.44710715 6.99447825 31.38208887 7.11108398 33.31518555 C8.03183861 48.89852329 8.03183861 48.89852329 4.66506958 54.03768921 C1.45104196 57.58769895 -2.24224367 60.29699993 -6.26428223 62.86468506 C-8.81384108 64.53232498 -11.10936962 66.47758478 -13.4375 68.4375 C-14.3140625 69.1490625 -15.190625 69.860625 -16.09375 70.59375 C-19.58953374 73.48810858 -23.01511643 76.45704843 -26.4375 79.4375 C-31.20889321 83.58648472 -35.98278026 87.73141281 -40.8125 91.8125 C-41.76769531 92.62332031 -42.72289063 93.43414062 -43.70703125 94.26953125 C-46 96 -46 96 -48 96 C-54.70229285 72.35766705 -61.32006084 48.69324703 -67.84643555 25.00170898 C-68.11641861 24.02264084 -68.38640167 23.04357269 -68.66456604 22.03483582 C-69.17232006 20.1932488 -69.67938668 18.35147207 -70.18565369 16.50947571 C-70.41072098 15.69327255 -70.63578827 14.8770694 -70.86767578 14.03613281 C-71.06322052 13.32547668 -71.25876526 12.61482056 -71.4602356 11.88262939 C-71.9305686 10.24216787 -72.46034019 8.61897944 -73 7 C-69.03010791 -0.76718018 -61.85111254 -5.25184596 -53.81640625 -8.18359375 C-35.68079761 -13.44065645 -15.27072441 -11.8026478 0 0 Z " fill="#522E90" transform="translate(81,185)"/>
<path d="M0 0 C2.97431508 9.63111551 4.57264971 16.89752461 0.375 26.4296875 C-10.44317327 46.65229549 -33.9077179 58.42608821 -55 65 C-59.1877989 66.19337506 -63.39554871 67.27708741 -67.625 68.3125 C-68.61298584 68.55508545 -69.60097168 68.7976709 -70.61889648 69.04760742 C-85.48542174 72.49013832 -100.02505495 73.35026486 -115.22460938 73.31567383 C-118.10065141 73.31252664 -120.97564747 73.33602754 -123.8515625 73.36132812 C-140.55281734 73.41814723 -156.66448975 71.40324266 -173 68 C-170.20058368 65.74237625 -167.59383761 64.27319632 -164.24633789 62.97314453 C-163.29450119 62.59988541 -162.34266449 62.22662628 -161.36198425 61.84205627 C-159.80801689 61.24348061 -159.80801689 61.24348061 -158.22265625 60.6328125 C-156.58282524 59.99236244 -156.58282524 59.99236244 -154.90986633 59.338974 C-151.92062407 58.17248166 -148.9293632 57.01135121 -145.93724823 55.85225296 C-142.78196484 54.62825437 -139.62953317 53.39696252 -136.47705078 52.16577148 C-135.18780756 51.66233215 -133.89856194 51.15889895 -132.60931396 50.6554718 C-131.96609947 50.40429407 -131.32288498 50.15311634 -130.66017914 49.89432716 C-128.68598271 49.12373983 -126.71147056 48.35396659 -124.73687744 47.58439636 C-111.59597145 42.46154658 -98.48380849 37.26687967 -85.375 32.0625 C-81.01185892 30.33167778 -76.64849918 28.60140706 -72.28515625 26.87109375 C-71.2420932 26.45737518 -70.19903015 26.04365662 -69.12435913 25.61740112 C-59.81917486 21.92699631 -50.51099665 18.24420452 -41.20025635 14.56784058 C-39.65359542 13.95711885 -38.10700098 13.34622874 -36.56048584 12.73513794 C-33.10113895 11.36830851 -29.64085846 10.003985 -26.17822266 8.64550781 C-23.14630878 7.45529857 -20.12180446 6.24762956 -17.09912109 5.03417969 C-15.46587384 4.38463101 -13.83257427 3.73521388 -12.19921875 3.0859375 C-11.05885918 2.62340073 -11.05885918 2.62340073 -9.89546204 2.15151978 C-6.34073074 0.74639408 -3.87288389 0 0 0 Z " fill="#3CB994" transform="translate(678,470)"/>
<path d="M0 0 C3.0118602 1.32210291 4.80540131 2.63389503 6.84765625 5.203125 C7.62302734 6.16798828 7.62302734 6.16798828 8.4140625 7.15234375 C8.95804687 7.84457031 9.50203125 8.53679687 10.0625 9.25 C10.63613281 9.96800781 11.20976562 10.68601563 11.80078125 11.42578125 C13.54243384 13.61055341 15.27312674 15.80353398 17 18 C17.72678955 18.92329102 17.72678955 18.92329102 18.46826172 19.86523438 C20.25941476 22.14291279 22.04867082 24.42202401 23.83203125 26.70581055 C26.80866494 30.51101947 29.83422187 34.27258645 32.89013672 38.0144043 C35.07542962 40.6906703 37.24951615 43.37593851 39.42333984 46.06152344 C40.46525157 47.34253599 41.51237639 48.61932797 42.56494141 49.89160156 C44.01551476 51.64610902 45.44687011 53.414711 46.875 55.1875 C47.69742188 56.19167969 48.51984375 57.19585937 49.3671875 58.23046875 C51 61 51 61 50.96484375 63.46484375 C49.77502502 66.59112859 48.28698848 69.43632524 46.6875 72.375 C41.77605337 81.76157171 39.36863186 91.49373778 38 102 C27.33660198 99.44962332 17.10933533 95.59120221 6.8125 91.875 C4.93173032 91.19821908 3.05095228 90.52146139 1.17016602 89.84472656 C-2.52877214 88.51226522 -6.22632434 87.17604847 -9.92285156 85.83691406 C-13.68607385 84.4737589 -17.45274486 83.12070124 -21.22190857 81.77407837 C-24.005834 80.77628471 -26.78400205 79.76279107 -29.5625 78.75 C-31.02175903 78.23155518 -31.02175903 78.23155518 -32.51049805 77.70263672 C-33.37457275 77.38311035 -34.23864746 77.06358398 -35.12890625 76.734375 C-35.86181885 76.46850586 -36.59473145 76.20263672 -37.34985352 75.92871094 C-39 75 -39 75 -40 72 C-39.40373597 69.35389296 -38.73342543 66.83589872 -37.9375 64.25 C-37.70708008 63.49138672 -37.47666016 62.73277344 -37.23925781 61.95117188 C-29.77968047 37.94034439 -18.47527551 17.24359047 0 0 Z " fill="#006A65" transform="translate(444,207)"/>
<path d="M0 0 C2.88416125 2.88416125 4.90533141 5.10637636 7.109375 8.39453125 C7.69066162 9.25554443 8.27194824 10.11655762 8.87084961 11.00366211 C9.49096924 11.93057861 10.11108887 12.85749512 10.75 13.8125 C12.09929772 15.81054629 13.44958976 17.8079214 14.80078125 19.8046875 C15.49510254 20.83174805 16.18942383 21.85880859 16.90478516 22.91699219 C20.21181463 27.78312691 23.57192221 32.61174859 26.9375 37.4375 C27.5967749 38.38351074 28.2560498 39.32952148 28.93530273 40.30419922 C30.27717321 42.22907354 31.61937795 44.15371488 32.96191406 46.078125 C36.41530135 51.0290281 39.86439289 55.98291846 43.3125 60.9375 C43.98531006 61.90421631 44.65812012 62.87093262 45.35131836 63.86694336 C49.08380801 69.23357614 52.80283717 74.60897665 56.5 80 C61.14141163 86.76756456 65.81652296 93.51148523 70.5 100.25 C71.19544922 101.25160156 71.89089844 102.25320313 72.60742188 103.28515625 C73.26291016 104.22746094 73.91839844 105.16976562 74.59375 106.140625 C75.17833984 106.98141602 75.76292969 107.82220703 76.36523438 108.68847656 C77.43133714 110.19592295 78.54018735 111.67428082 79.69458008 113.11523438 C81.57911336 115.83612401 81.29381915 117.98954615 81.1875 121.25 C81.14689453 122.86648438 81.14689453 122.86648438 81.10546875 124.515625 C81.07066406 125.33546875 81.03585938 126.1553125 81 127 C76.02100058 126.38832937 71.32120976 125.37114283 66.50415039 123.95874023 C65.41750044 123.64632558 65.41750044 123.64632558 64.30889797 123.32759953 C61.98719773 122.65896251 59.66741406 121.98393504 57.34765625 121.30859375 C55.90535559 120.89219308 54.46293245 120.47621642 53.02038574 120.06066895 C47.69960751 118.52474073 42.38119306 116.98063338 37.0625 115.4375 C25.161875 111.993125 13.26125 108.54875 1 105 C1 139.98 1 174.96 1 211 C0.67 211 0.34 211 0 211 C0 141.37 0 71.74 0 0 Z " fill="#81288F" transform="translate(168,216)"/>
<path d="M0 0 C0.65049316 0.39453369 1.30098633 0.78906738 1.97119141 1.19555664 C9.09921824 5.68456795 15.04249328 11.21171209 20.9375 17.1875 C21.77152344 18.01121094 22.60554687 18.83492188 23.46484375 19.68359375 C33.90825311 30.55545067 41.95868599 45.01588282 42.9375 60.1875 C37.05998454 59.49761786 31.50286119 58.11853751 25.796875 56.5703125 C24.83404602 56.31248993 23.87121704 56.05466736 22.87921143 55.78903198 C19.81427024 54.96732902 16.75088449 54.13998534 13.6875 53.3125 C11.64463011 52.7639546 9.60166222 52.21577405 7.55859375 51.66796875 C0.30160654 49.72014404 -6.95343507 47.76567798 -14.20043945 45.78100586 C-20.87563198 43.95882115 -27.56424935 42.1874032 -34.2521801 40.41271782 C-39.01231126 39.14876048 -43.77128082 37.88043439 -48.53044796 36.61285305 C-52.69656602 35.50348852 -56.86309982 34.3957327 -61.03051758 33.29125977 C-65.09015671 32.21525751 -69.14864975 31.13502873 -73.20639229 30.05189705 C-74.746144 29.64170598 -76.28630647 29.23305351 -77.82688713 28.82598686 C-79.97414726 28.25837736 -82.11989851 27.68537088 -84.26538086 27.11108398 C-85.48462753 26.78704086 -86.70387421 26.46299774 -87.96006775 26.12913513 C-90.53453636 25.34774495 -92.72347948 24.4938993 -95.0625 23.1875 C-86.37201012 19.53438803 -77.47441545 16.52002594 -68.546875 13.51171875 C-67.76919014 13.2493574 -66.99150528 12.98699604 -66.19025421 12.71668434 C-62.08671808 11.333096 -57.98185319 9.95353044 -53.87597656 8.5769043 C-49.64677416 7.15787409 -45.42295597 5.72345095 -41.20006943 4.2857542 C-37.9362147 3.17788095 -34.66843381 2.08197009 -31.39948273 0.98923683 C-29.83987503 0.46551234 -28.28179394 -0.06278195 -26.72533417 -0.59578896 C-24.55238247 -1.33876398 -22.37436785 -2.06448743 -20.19433594 -2.78637695 C-18.95874939 -3.20289017 -17.72316284 -3.61940338 -16.45013428 -4.04853821 C-9.97332822 -5.50915407 -5.46877351 -3.33390087 0 0 Z " fill="#FAB03F" transform="translate(936.0625,348.8125)"/>
<path d="M0 0 C0.33 0 0.66 0 1 0 C1.21269531 0.85722656 1.42539062 1.71445312 1.64453125 2.59765625 C3.27374483 6.6871232 5.66605576 9.33975009 8.6875 12.4375 C9.28183838 13.06148682 9.87617676 13.68547363 10.48852539 14.32836914 C17.50221813 21.63491646 24.70724582 28.7635385 31.91479492 35.87866211 C36.6377348 40.5523414 41.24871172 45.25246326 45.52197266 50.34594727 C47.78621805 52.87985254 50.32483903 54.91206949 53 57 C48.83791061 62.92782428 44.3791938 68.14712864 39 73 C37.02234496 75.01414445 37.02234496 75.01414445 35.05981445 77.04296875 C28.29837272 82.25291818 28.29837272 82.25291818 23.93946838 81.77325439 C21.59030205 81.0754918 19.36716226 80.22340462 17.1015625 79.2890625 C15.3157726 78.60827143 13.52996448 77.92752817 11.74414062 77.24682617 C10.80723389 76.87826508 9.87032715 76.50970398 8.9050293 76.12997437 C4.99017351 74.60720601 1.04140242 73.18635559 -2.91047668 71.76303101 C-8.23969112 69.84231524 -13.5562673 67.88701306 -18.875 65.9375 C-19.99532623 65.52702423 -21.11565247 65.11654846 -22.26992798 64.69363403 C-26.85827883 63.01246997 -31.4466134 61.33126316 -36.03443909 59.64866638 C-42.34905559 57.33364344 -48.66716172 55.0286853 -54.99047852 52.73753357 C-58.56255134 51.44259511 -62.13267953 50.14235506 -65.70245361 48.84109497 C-67.3523837 48.24115908 -69.00321828 47.64370462 -70.65496826 47.04879761 C-72.91172059 46.23562193 -75.16515224 45.41384787 -77.41796875 44.58984375 C-78.07888016 44.35426758 -78.73979156 44.11869141 -79.42073059 43.87597656 C-83.88597635 42.2280473 -83.88597635 42.2280473 -85 40 C-84.18547363 39.98018066 -83.37094727 39.96036133 -82.53173828 39.93994141 C-43.91415988 40.80275372 -43.91415988 40.80275372 -10.75 24.7421875 C-4.49683009 17.40850661 -0.8359287 9.61318004 0 0 Z " fill="#E1E31A" transform="translate(910,441)"/>
<path d="M0 0 C4.46037278 4.33293356 6.3991689 8.21745621 6.66851807 14.37059021 C6.68004256 16.43641922 6.66963941 18.50244435 6.64160156 20.56811523 C6.64218567 21.70055161 6.64276978 22.83298798 6.64337158 23.9997406 C6.64059372 27.72800775 6.60951404 31.45546694 6.578125 35.18359375 C6.5706616 37.77433333 6.56496913 40.36507856 6.56097412 42.95582581 C6.54728278 49.06854067 6.51578515 55.18092407 6.47557616 61.29351431 C6.43077627 68.25601847 6.40885085 75.21853681 6.38879442 82.18114936 C6.34704968 96.4959206 6.27674917 110.81045005 6.1875 125.125 C5.8575 125.125 5.5275 125.125 5.1875 125.125 C5.16244385 124.05016357 5.1373877 122.97532715 5.11157227 121.86791992 C5.01742505 117.88146978 4.91722215 113.89519091 4.81518555 109.90893555 C4.77186438 108.18339035 4.73018727 106.45780307 4.69018555 104.73217773 C4.63241474 102.25231236 4.56873997 99.77265828 4.50390625 97.29296875 C4.48719376 96.52099655 4.47048126 95.74902435 4.45326233 94.95365906 C4.30746915 89.68688494 3.99367742 86.78478598 0.1875 83.125 C-0.82655257 81.80232273 -1.82518258 80.46775169 -2.8125 79.125 C-4.14060215 77.45416181 -5.47422696 75.78770287 -6.8125 74.125 C-9.19879274 71.16021206 -11.52927406 68.16930126 -13.8125 65.125 C-15.14060215 63.45416181 -16.47422696 61.78770287 -17.8125 60.125 C-18.493125 59.25875 -19.17375 58.3925 -19.875 57.5 C-21.68177279 55.18793444 -21.68177279 55.18793444 -23.4375 53.5625 C-25.03084205 51.89673331 -25.81320514 50.19020937 -26.8125 48.125 C-27.4725 47.465 -28.1325 46.805 -28.8125 46.125 C-30.15673339 44.46711215 -31.48868483 42.79923683 -32.8125 41.125 C-33.4725 40.3 -34.1325 39.475 -34.8125 38.625 C-35.4725 37.8 -36.1325 36.975 -36.8125 36.125 C-37.493125 35.279375 -38.17375 34.43375 -38.875 33.5625 C-40.56020166 31.4424076 -42.18778053 29.29129263 -43.8125 27.125 C-45.14060215 25.45416181 -46.47422696 23.78770287 -47.8125 22.125 C-50.19879274 19.16021206 -52.52927406 16.16930126 -54.8125 13.125 C-56.85961288 10.54959993 -58.92318423 7.98901652 -61 5.4375 C-62.8125 3.125 -62.8125 3.125 -63.8125 1.125 C-64.39 1.41375 -64.9675 1.7025 -65.5625 2 C-67.64583333 3.04166667 -69.72916667 4.08333333 -71.8125 5.125 C-65.80278016 -3.53606683 -56.07182147 -8.18666316 -45.91503906 -10.51538086 C-29.11735506 -13.3884636 -14.01252396 -9.34168264 0 0 Z " fill="#00629E" transform="translate(242.8125,19.875)"/>
<path d="M0 0 C1.1282554 1.1282554 2.25614956 2.25687314 3.3828125 3.38671875 C4.53917449 4.5402876 5.70129744 5.68809309 6.8671875 6.83203125 C10.69764439 10.61032239 14.32776245 14.47392942 17.8359375 18.55078125 C20.74484201 21.84298907 23.74634162 25.04433063 26.75 28.25 C32.87890202 34.79278717 38.95305169 41.38140518 45 48 C46.8325302 50.00073663 48.66627021 52.00036286 50.5 54 C51.41668877 54.99997974 52.33335546 55.99997972 53.25 57 C53.70375 57.495 54.1575 57.99 54.625 58.5 C56 60 57.375 61.5 58.75 63 C59.20407227 63.49532227 59.65814453 63.99064453 60.12597656 64.50097656 C61.03950603 65.49761319 61.95291815 66.49435741 62.86621094 67.49121094 C65.20490938 70.04358061 67.54582914 72.5938548 69.890625 75.140625 C75.00184097 80.69633221 80.0712854 86.28067248 85 92 C67.80175654 97.73274782 35.63131728 82.50749514 20.203125 74.90039062 C6.08511833 67.58636549 -8.33070713 57.81273437 -15.1484375 42.85546875 C-18.31436739 32.2394378 -16.16572008 21.56523287 -11 12 C-7.82870709 7.32326844 -4.72609511 3.15073007 0 0 Z " fill="#0EB04B" transform="translate(733,449)"/>
<path d="M0 0 C1.88728225 1.75283977 3.69750226 3.56249072 5.49867439 5.40376472 C6.19190804 6.09641426 6.88514168 6.7890638 7.5993824 7.50270271 C9.88686463 9.79297014 12.15985572 12.09707648 14.43300056 14.40156746 C16.01681821 15.99284588 17.6015217 17.58324307 19.18707466 19.17279243 C23.35684765 23.35783435 27.51446907 27.55474946 31.6696949 31.75422859 C35.91231549 36.03777413 40.16628891 40.31001183 44.41932869 44.58320808 C52.76187552 52.9686481 61.091632 61.36667193 69.41346931 69.77266121 C65.77279579 70.80746167 63.3450388 70.56644365 59.60487556 69.85859871 C52.16102785 68.62678576 44.88612131 68.38919316 37.35096931 68.39766121 C36.67903542 68.39687569 36.00710152 68.39609016 35.31480598 68.39528084 C23.61226855 68.41157891 12.71185398 69.79160232 1.41346931 72.77266121 C-1.25203044 73.44406588 -3.91927756 74.10823825 -6.58653069 74.77266121 C-6.76334877 74.14642357 -6.94016685 73.52018593 -7.12234306 72.87497139 C-8.98731462 66.27048793 -10.85358608 59.66637273 -12.72056389 53.06245613 C-13.41424688 50.60812049 -14.10761442 48.15369567 -14.80064201 45.69917488 C-15.80523419 42.14139538 -16.81109055 38.58397487 -17.81699944 35.02656746 C-18.14191368 33.87419594 -18.46682793 32.72182442 -18.80158806 31.53453255 C-20.23569422 26.46396729 -21.68511642 21.40136626 -23.22569084 16.36201668 C-23.46709297 15.56827141 -23.7084951 14.77452614 -23.95721245 13.95672798 C-24.39508244 12.52792059 -24.84023041 11.10131297 -25.29434013 9.67758369 C-26.28615599 6.44159389 -26.68719909 5.07466642 -25.58653069 1.77266121 C-23.80821037 1.0490284 -23.80821037 1.0490284 -21.50840569 0.56953621 C-20.67696037 0.39422371 -19.84551506 0.21891121 -18.98887444 0.03828621 C-17.67596428 -0.21694817 -17.67596428 -0.21694817 -16.33653069 -0.47733879 C-15.476726 -0.66296379 -14.61692131 -0.84858879 -13.73106194 -1.03983879 C-3.9228663 -3.03472604 -3.9228663 -3.03472604 0 0 Z " fill="#01A66D" transform="translate(527.5865306854248,174.22733879089355)"/>
<path d="M0 0 C18.08489764 6.36227203 36.16121065 12.74906562 54.22271729 19.17745972 C56.11848102 19.85173586 58.01460067 20.52501215 59.91107178 21.19729614 C62.57841271 22.14312672 65.24443865 23.09257428 67.91015625 24.04296875 C68.7158757 24.32786163 69.52159515 24.61275452 70.35173035 24.90628052 C75.8858132 26.8858132 75.8858132 26.8858132 77 28 C77.01676178 29.92873499 76.96268831 31.85816892 76.87890625 33.78515625 C76.83056641 34.95498047 76.78222656 36.12480469 76.73242188 37.33007812 C76.67634766 38.56177734 76.62027344 39.79347656 76.5625 41.0625 C76.51029297 42.29806641 76.45808594 43.53363281 76.40429688 44.80664062 C76.27413667 47.87132191 76.13915654 50.93571613 76 54 C72.50868336 55.16377221 69.23160146 55.30717305 65.59106445 55.48071289 C64.83960144 55.5198732 64.08813843 55.55903351 63.31390381 55.59938049 C60.83054946 55.72779792 58.3469385 55.85024884 55.86328125 55.97265625 C54.14119115 56.06054104 52.41912 56.14879765 50.69706726 56.2374115 C46.16480459 56.46963076 41.63230195 56.69679232 37.09973145 56.9229126 C32.47453567 57.15454713 27.84958387 57.3909488 23.22460938 57.62695312 C14.14997239 58.0893096 5.07507485 58.54632496 -4 59 C-4.03597605 54.10422504 -4.06182953 49.20852981 -4.07896423 44.31265259 C-4.08611986 42.65284888 -4.09587284 40.99305399 -4.10844421 39.33328247 C-4.33460434 8.66920868 -4.33460434 8.66920868 0 0 Z " fill="#0098AE" transform="translate(404,281)"/>
<path d="M0 0 C5.85895599 0.90932258 10.11544418 2.79009005 15.3125 5.5625 C16.58009155 6.23696167 16.58009155 6.23696167 17.87329102 6.92504883 C27.6876539 12.28722273 35.67128228 18.08235974 38.9375 29.1875 C39.15993791 42.7562124 32.16651997 56.65086216 22.91796875 66.29296875 C18.13672197 70.54837576 12.56928924 72.41730905 6.21484375 72.26953125 C-2.34534409 71.22781527 -10.41260233 67.5491593 -18.1875 64 C-19.3019751 63.50209961 -19.3019751 63.50209961 -20.43896484 62.99414062 C-25.55862158 60.57510579 -25.55862158 60.57510579 -27.36251831 58.22467041 C-28.30315758 54.94204695 -27.18755492 53.41271852 -25.65673828 50.40527344 C-25.09600616 49.28441345 -24.53527405 48.16355347 -23.95755005 47.00872803 C-23.32880988 45.79210176 -22.69972246 44.57565489 -22.0703125 43.359375 C-21.43829493 42.11026153 -20.80768735 40.86043372 -20.17843628 39.60992432 C-18.51885248 36.32129464 -16.84027611 33.04272599 -15.15759277 29.76586914 C-13.44377151 26.42007835 -11.74804367 23.06514956 -10.05078125 19.7109375 C-6.71818682 13.13153461 -3.36548022 6.56265304 0 0 Z " fill="#FDD301" transform="translate(934,183)"/>
<path d="M0 0 C12.23098849 -0.06963091 24.46192951 -0.12287779 36.69307613 -0.15543652 C42.37301085 -0.17106616 48.05280956 -0.19225518 53.73266602 -0.22631836 C59.21806226 -0.25900799 64.70332799 -0.27687332 70.18881416 -0.28463173 C72.2775026 -0.290158 74.36618421 -0.30094937 76.45481682 -0.31719017 C79.38922214 -0.33909197 82.32309394 -0.34196159 85.25756836 -0.34057617 C86.11353104 -0.351362 86.96949371 -0.36214783 87.85139465 -0.3732605 C94.44319087 -0.33977034 100.87518035 0.67117572 106.26953125 4.69140625 C113.49153957 13.44923406 117.03336126 23.57561723 116 35 C114.5229641 44.17514673 111.7584704 51.98922919 104.51245117 58.09667969 C99.84564279 60.62552088 96.2242739 60.50902212 91.0078125 60.390625 C90.06187225 60.38496521 89.11593201 60.37930542 88.1413269 60.37347412 C85.13535858 60.35117571 82.13060489 60.30099138 79.125 60.25 C77.08074644 60.22992656 75.03647411 60.21167727 72.9921875 60.1953125 C67.99432735 60.15133228 62.99736925 60.08234985 58 60 C59.31238399 55.72770367 60.95672282 51.95139551 63.08984375 48.02734375 C63.70456543 46.88966553 64.31928711 45.7519873 64.95263672 44.57983398 C65.2768158 43.98500214 65.60099487 43.39017029 65.93499756 42.77731323 C67.29092611 40.28888508 68.63606288 37.79468413 69.98168945 35.30067444 C70.66364266 34.03684388 71.34609789 32.77328408 72.02905273 31.50999451 C75.18332223 25.6729353 78.2918655 19.81245333 81.375 13.9375 C81.83253662 13.0705249 82.29007324 12.2035498 82.76147461 11.31030273 C83.17792236 10.51567627 83.59437012 9.7210498 84.0234375 8.90234375 C84.38356934 8.21648193 84.74370117 7.53062012 85.11474609 6.82397461 C86.12327023 4.84641663 86.12327023 4.84641663 87 2 C58.29 1.67 29.58 1.34 0 1 C0 0.67 0 0.34 0 0 Z " fill="#066965" transform="translate(249,174)"/>
<path d="M0 0 C5.62127846 5.62127846 5.62127846 5.62127846 7.54296875 8.49609375 C7.97254883 9.13023193 8.40212891 9.76437012 8.84472656 10.41772461 C9.2878418 11.08425049 9.73095703 11.75077637 10.1875 12.4375 C13.01197685 16.66204919 15.83191385 20.8458748 18.97265625 24.84375 C19.43969971 25.45033447 19.90674316 26.05691895 20.38793945 26.68188477 C21.26914412 27.8177053 22.16909429 28.93932935 23.09057617 30.04272461 C25.52785539 33.23175722 26.00991437 34.84542325 25.75123596 38.87852478 C24.91634422 45.05658329 23.79293422 51.18905275 22.68334961 57.32250977 C22.4464969 58.64397186 22.20990653 59.96548099 21.97355652 61.28703308 C21.33579359 64.8488503 20.69439477 68.41000392 20.05230784 71.97104383 C19.38019193 75.70223107 18.71146796 79.43402617 18.04237366 83.16575623 C16.77689668 90.22074642 15.50839969 97.27519004 14.23879868 104.3294391 C12.79267492 112.365348 11.34994649 120.40186529 9.90749347 128.43843377 C6.94208853 144.95963251 3.97245142 161.48006756 1 178 C0.67 178 0.34 178 0 178 C0 119.26 0 60.52 0 0 Z " fill="#EC0972" transform="translate(7,245)"/>
<path d="M0 0 C0 4.25106627 -0.26880476 4.83028345 -2.625 8.0625 C-4.9929216 11.44762736 -7.06475692 14.84966054 -9 18.5 C-11.28193089 22.77267789 -13.77726612 26.77274704 -16.5078125 30.76953125 C-18.58217016 33.87020723 -20.47138075 37.0699436 -22.375 40.27734375 C-25.17711313 44.97223041 -28.06125712 49.61678916 -30.93261719 54.26953125 C-32.79094233 57.28229626 -34.64522199 60.29755045 -36.5 63.3125 C-37.66666667 65.20833333 -38.83333333 67.10416667 -40 69 C-43.53199525 68.44431971 -44.88725412 67.41585517 -47 64.5625 C-53.89240844 54.62623605 -55.53162672 44.89010966 -54 33 C-51.14632958 21.02281598 -42.78947016 12.04940027 -32.63671875 5.47265625 C-21.96897142 -0.48547818 -11.87321462 -0.47492858 0 0 Z " fill="#008ABD" transform="translate(54,0)"/>
<path d="M0 0 C0.33 0 0.66 0 1 0 C1 31.68 1 63.36 1 96 C-6.43970252 94.14007437 -13.79776758 92.2544106 -21.140625 90.08203125 C-22.48021271 89.68886971 -22.48021271 89.68886971 -23.84686279 89.2877655 C-26.64857576 88.46492636 -29.44930051 87.63878131 -32.25 86.8125 C-34.17050796 86.24782591 -36.09108039 85.68337104 -38.01171875 85.11914062 C-42.67522612 83.74861943 -47.33785151 82.37513631 -52 81 C-50.26204439 77.21352797 -48.3052917 75.39006413 -45 72.8125 C-41.22448968 69.80880624 -37.55939005 66.75707006 -34 63.5 C-29.79008032 59.66738444 -25.4418872 56.05551165 -21.015625 52.4765625 C-16.84340169 49.05015113 -12.75974477 45.52383946 -8.68261719 41.98510742 C-6.18896248 39.82997878 -3.74634714 37.83089809 -1 36 C-0.66222851 33.24099243 -0.51102021 30.69516743 -0.48828125 27.9296875 C-0.47033005 27.13345978 -0.45237885 26.33723206 -0.43388367 25.51687622 C-0.37963031 22.9696383 -0.34583788 20.42258929 -0.3125 17.875 C-0.27934007 16.1497132 -0.24485166 14.42445139 -0.20898438 12.69921875 C-0.12389565 8.46628187 -0.05715693 4.23340247 0 0 Z " fill="#822B8E" transform="translate(87,201)"/>
<path d="M0 0 C0.33 0 0.66 0 1 0 C1.28461889 4.79490659 0.4605998 7.96734686 -1.47265625 12.34375 C-1.74270981 12.96447388 -2.01276337 13.58519775 -2.29100037 14.22473145 C-2.88746059 15.59234613 -3.48893529 16.95778195 -4.09472656 18.32128906 C-5.44570197 21.36268778 -6.77205643 24.41465813 -8.10079956 27.46582031 C-8.84116235 29.16494432 -9.58284592 30.86349331 -10.32571411 32.56152344 C-14.96410195 43.1720623 -19.48190718 53.83388919 -24.00967407 64.49197388 C-26.4755776 70.29637802 -28.94411003 76.09966149 -31.4140625 81.90234375 C-31.89110123 83.02305771 -32.36813995 84.14377167 -32.8596344 85.29844666 C-35.81237052 92.22917493 -38.78400717 99.15143268 -41.7734375 106.06640625 C-42.48242326 107.70898378 -43.19140768 109.35156188 -43.90039062 110.99414062 C-45.17756182 113.95224193 -46.46092227 116.90754655 -47.74804688 119.86132812 C-48.30881303 121.15875941 -48.86937415 122.45627935 -49.4296875 123.75390625 C-49.90647949 124.85033447 -50.38327148 125.9467627 -50.87451172 127.07641602 C-51.89815106 129.73543577 -52.54859421 132.19381479 -53 135 C-53.33 134.34 -53.66 133.68 -54 133 C-54.66 133 -55.32 133 -56 133 C-57.741821 130.67856789 -59.35319088 128.36311612 -60.9375 125.9375 C-61.38029297 125.28072266 -61.82308594 124.62394531 -62.27929688 123.94726562 C-65.04103944 119.76966696 -67.16407697 115.65948781 -69 111 C-67.515 110.505 -67.515 110.505 -66 110 C-64.25975526 107.58927124 -64.25975526 107.58927124 -62.5859375 104.54296875 C-62.259422 103.97739258 -61.93290649 103.41181641 -61.59649658 102.82910156 C-60.88789439 101.59989793 -60.18330215 100.36837603 -59.48223877 99.13485718 C-57.58490441 95.79791868 -55.6574544 92.47839484 -53.734375 89.15625 C-53.14186447 88.12989693 -53.14186447 88.12989693 -52.53738403 87.08280945 C-48.66603936 80.38920836 -44.6594104 73.78398466 -40.625 67.1875 C-34.83593384 57.70971758 -29.12634957 48.18839327 -23.47253418 38.62930298 C-17.50729617 28.54453652 -11.52163889 18.47567836 -5.375 8.5 C-4.83649414 7.62158447 -4.29798828 6.74316895 -3.74316406 5.83813477 C-3.2581543 5.05623779 -2.77314453 4.27434082 -2.2734375 3.46875 C-1.85497559 2.79263672 -1.43651367 2.11652344 -1.00537109 1.41992188 C-0.5077124 0.71706055 -0.5077124 0.71706055 0 0 Z " fill="#81298F" transform="translate(248,366)"/>
<path d="M0 0 C2.05157528 2.05157528 2.52824157 3.06030192 3.4453125 5.72998047 C3.71351807 6.50127289 3.98172363 7.27256531 4.25805664 8.06723022 C4.54414795 8.90871613 4.83023926 9.75020203 5.125 10.6171875 C5.42849365 11.49404205 5.7319873 12.37089661 6.04467773 13.27432251 C7.03521114 16.13937546 8.01776493 19.00709261 9 21.875 C10.35183585 25.80028484 11.70701469 29.72441164 13.0625 33.6484375 C13.39813965 34.62186096 13.7337793 35.59528442 14.07958984 36.59820557 C16.08775208 42.40933115 18.13824698 48.20230157 20.25 53.9765625 C20.48992676 54.6349411 20.72985352 55.2933197 20.97705078 55.97164917 C22.07151064 58.97209253 23.17510188 61.96863559 24.29296875 64.96044922 C24.67066406 65.99443848 25.04835938 67.02842773 25.4375 68.09375 C25.93056641 69.41922852 25.93056641 69.41922852 26.43359375 70.77148438 C27 73 27 73 26 76 C10.11878032 68.12455343 -6.43800455 58.7712145 -14.1484375 41.85546875 C-16.97059142 32.39219117 -15.48393923 22.94539925 -11.63671875 14.02734375 C-8.90997764 8.98384885 -5.28791184 2.64395592 0 0 Z " fill="#3CB894" transform="translate(732,450)"/>
<path d="M0 0 C4.29 0 8.58 0 13 0 C13.40839111 1.43722412 13.81678223 2.87444824 14.23754883 4.35522461 C15.76187095 9.71762423 17.28886835 15.07925903 18.81665039 20.44067383 C19.47590263 22.75557205 20.13444162 25.07067352 20.79223633 27.38598633 C21.74109766 30.72531738 22.6925721 34.06389468 23.64453125 37.40234375 C23.9352803 38.42770737 24.22602936 39.45307098 24.52558899 40.50950623 C24.80565292 41.48984329 25.08571686 42.47018036 25.37426758 43.48022461 C25.61631424 44.33071884 25.8583609 45.18121307 26.10774231 46.05747986 C27.32271249 50.06425308 28.67597643 54.02792929 30 58 C45.84 58.33 61.68 58.66 78 59 C78 59.33 78 59.66 78 60 C45.99 60 13.98 60 -19 60 C-19 59.67 -19 59.34 -19 59 C-13.72 59 -8.44 59 -3 59 C-2.95101563 57.4221875 -2.90203125 55.844375 -2.8515625 54.21875 C-2.25319229 36.11701468 -1.20155233 18.06994713 0 0 Z " fill="#006990" transform="translate(268,175)"/>
<path d="M0 0 C2.80298305 2.80298305 3.33491892 6.08759764 4.35424805 9.81445312 C4.69359375 11.02439186 4.69359375 11.02439186 5.03979492 12.2587738 C5.78724347 14.93108752 6.52478823 17.60601824 7.26171875 20.28125 C7.77654245 22.13458615 8.29175027 23.98781565 8.80732727 25.84094238 C9.88678303 29.72690349 10.96130827 33.61418637 12.0324707 37.50244141 C13.40848005 42.49559027 14.79700595 47.48515637 16.18927288 52.47379303 C17.25559919 56.30009382 18.3151132 60.12825495 19.37256813 63.95701599 C19.88197817 65.79808634 20.3935741 67.63855326 20.90735435 69.47840881 C21.62318121 72.0455933 22.32977807 74.61514102 23.03393555 77.18554688 C23.24945572 77.95132553 23.46497589 78.71710419 23.68702698 79.50608826 C25.11424946 84.77150107 25.11424946 84.77150107 24 87 C22.05907075 84.3358153 20.12299241 81.66813643 18.1875 79 C17.65962891 78.27554688 17.13175781 77.55109375 16.58789062 76.8046875 C10.90696849 68.96435052 5.49189342 60.98820861 0 53 C-0.33 140.78 -0.66 228.56 -1 319 C-1.33 319 -1.66 319 -2 319 C-2.0457632 279.22778634 -2.08101197 239.4555761 -2.10213066 199.68334138 C-2.10463212 194.98941504 -2.10722076 190.29548876 -2.10986328 185.6015625 C-2.11065021 184.19982966 -2.11065021 184.19982966 -2.11145304 182.76977898 C-2.1201591 167.63245262 -2.13593019 152.49514143 -2.15430559 137.35782407 C-2.17299904 121.82916564 -2.18411555 106.30051516 -2.18817699 90.77184594 C-2.1909232 81.18742054 -2.19960147 71.60303801 -2.21583293 62.01862581 C-2.22639296 55.44903363 -2.22960285 48.87946366 -2.22700275 42.30986361 C-2.22571993 38.51779192 -2.22770661 34.72579521 -2.23841095 30.9337368 C-2.24992786 26.82384778 -2.24598189 22.71411898 -2.24050903 18.60421753 C-2.24633472 17.40382776 -2.2521604 16.20343799 -2.25816262 14.96667278 C-2.22212307 4.99088359 -2.22212307 4.99088359 0 0 Z " fill="#A0194A" transform="translate(8,193)"/>
<path d="M0 0 C5.93535673 1.2134837 11.63668736 2.74224204 17.36547852 4.70556641 C18.1470784 4.96920486 18.92867828 5.23284332 19.73396301 5.50447083 C22.2837955 6.36575461 24.83134399 7.23358925 27.37890625 8.1015625 C29.15952473 8.70445889 30.94028364 9.30694064 32.72117615 9.9090271 C37.38317212 11.48639126 42.04325175 13.06934276 46.70294189 14.65350342 C51.46812451 16.27241042 56.23511572 17.88597344 61.00195312 19.5 C70.33640355 22.66146738 79.66883629 25.82884608 89 29 C89 29.99 89 30.98 89 32 C85.74574619 35.19292132 82.23395831 37.33246588 78 39 C73.4960929 38.91779333 69.74296908 37.53709059 65.5625 35.9375 C64.43013916 35.54425537 63.29777832 35.15101074 62.13110352 34.74584961 C58.73301549 33.547749 55.36683364 32.28294082 52 31 C50.15377599 30.32516464 48.30743178 29.65065799 46.4609375 28.9765625 C29.47789299 22.60974476 11.1757498 14.90099974 0 0 Z " fill="#3BB34B" transform="translate(749,342)"/>
<path d="M0 0 C0.81969269 -0.00067474 1.63938538 -0.00134949 2.48391724 -0.00204468 C27.92311946 0.03109582 53.43569519 3.20962962 77.375 12.25 C77.375 12.58 77.375 12.91 77.375 13.25 C65.0273315 12.64239799 52.77154979 11.56811986 40.48046875 10.25390625 C38.63106063 10.05822098 36.78163918 9.86266174 34.9322052 9.66722107 C31.09569048 9.26071592 27.25953592 8.85098922 23.42358398 8.43920898 C18.50970876 7.91223479 13.5947483 7.39621131 8.67943859 6.88281345 C4.87766045 6.48406139 1.07665854 6.07826695 -2.72415733 5.67045403 C-4.53758096 5.47699482 -6.35127347 5.28603871 -8.1652317 5.09765816 C-10.6875863 4.83492137 -13.2086976 4.56239165 -15.72973633 4.28735352 C-16.84629608 4.17426094 -16.84629608 4.17426094 -17.9854126 4.05888367 C-21.57450852 3.65686876 -24.52896249 3.17181794 -27.625 1.25 C-18.42307341 0.10667445 -9.25781112 0.00686117 0 0 Z " fill="#DADD24" transform="translate(856.625,169.75)"/>
<path d="M0 0 C8.2916739 2.12607023 14.50311783 6.42193412 18.93257141 13.68637085 C20.76645907 17.661284 20.61825995 21.44094599 20.48828125 25.75 C20.48120651 26.64871826 20.47413177 27.54743652 20.46684265 28.47338867 C20.43907089 31.31647446 20.37636784 34.15751942 20.3125 37 C20.28739475 38.93877344 20.2645855 40.87757806 20.24414062 42.81640625 C20.18930109 47.54504549 20.10315133 52.27217794 20 57 C18.15521474 54.23282211 17.2602777 52.14475048 16.22827148 49.02539062 C15.89129745 48.01424194 15.55432343 47.00309326 15.20713806 45.96130371 C14.84874344 44.87063599 14.49034882 43.77996826 14.12109375 42.65625 C13.74896255 41.53561157 13.37683136 40.41497314 12.99342346 39.26037598 C11.80388888 35.67496856 10.62062103 32.08752827 9.4375 28.5 C8.63648032 26.08189453 7.83505298 23.66392406 7.03320312 21.24609375 C5.26908642 15.92421625 3.50891684 10.60105196 1.75218201 5.2767334 C1.17078542 3.51693987 0.58607979 1.75823938 0 0 Z " fill="#027CC1" transform="translate(229,13)"/>
<path d="M0 0 C5.62127846 5.62127846 5.62127846 5.62127846 7.54296875 8.49609375 C7.97246826 9.1307959 8.40196777 9.76549805 8.84448242 10.41943359 C9.28767822 11.08539551 9.73087402 11.75135742 10.1875 12.4375 C11.14453663 13.85634426 12.10289997 15.27429442 13.0625 16.69140625 C13.54589844 17.40570801 14.02929688 18.12000977 14.52734375 18.85595703 C17.26966843 22.84851263 20.12754251 26.76021078 23.00268555 30.65795898 C26 34.78301224 26 34.78301224 26 37 C17.42 35.35 8.84 33.7 0 32 C0 21.44 0 10.88 0 0 Z " fill="#EB0970" transform="translate(7,245)"/>
<path d="M0 0 C2.30642014 3.45963022 3.56473348 7.0221484 4.94140625 10.91015625 C5.22539276 11.70209885 5.50937927 12.49404144 5.80197144 13.3099823 C6.72659951 15.89258966 7.64496786 18.47736385 8.5625 21.0625 C9.19333713 22.83369577 9.8242783 24.60485448 10.45532227 26.37597656 C11.71574296 29.91706879 12.97281392 33.4593273 14.22753906 37.00244141 C15.56783533 40.78604812 16.91785026 44.56603096 18.27400208 48.34397888 C19.33638265 51.30986113 20.38641913 54.280098 21.4375 57.25 C21.82043213 58.31226807 22.20336426 59.37453613 22.59790039 60.46899414 C22.9355542 61.43313232 23.27320801 62.39727051 23.62109375 63.390625 C23.9142749 64.21594727 24.20745605 65.04126953 24.50952148 65.89160156 C25 68 25 68 24 71 C22.33711577 70.3994302 20.69457922 69.74234225 19.0625 69.0625 C18.14597656 68.70285156 17.22945312 68.34320312 16.28515625 67.97265625 C13.29201952 65.38883736 13.6588001 63.47443875 13.32350159 59.69691467 C12.71084702 54.58943712 11.32193244 49.64674945 10.05859375 44.66796875 C9.6278933 42.93671501 9.6278933 42.93671501 9.18849182 41.17048645 C8.27698855 37.50809274 7.35801524 33.8476382 6.4375 30.1875 C5.51383185 26.50941159 4.59192664 22.83092882 3.67579651 19.1509552 C3.1071773 16.86718365 2.5341982 14.58449225 1.95640564 12.30302429 C1.69936356 11.27127579 1.44232147 10.23952728 1.17749023 9.17651367 C0.94956284 8.27100266 0.72163544 7.36549164 0.48680115 6.43254089 C0 4 0 4 0 0 Z " fill="#02959B" transform="translate(734,455)"/>
<path d="M0 0 C7.77280356 3.75386223 14.6385417 8.47814403 21.48828125 13.71484375 C23.46689588 15.0864271 25.4683685 16.40463008 27.48828125 17.71484375 C25.48828125 18.71484375 25.48828125 18.71484375 23.62878418 18.24113464 C22.49865906 17.82049492 22.49865906 17.82049492 21.34570312 17.39135742 C20.49141724 17.07740524 19.63713135 16.76345306 18.75695801 16.43998718 C17.83298218 16.09111954 16.90900635 15.74225189 15.95703125 15.3828125 C15.01017456 15.03100418 14.06331787 14.67919586 13.08776855 14.31672668 C11.08236273 13.56957441 9.07836884 12.81862324 7.07568359 12.06420898 C4.00459986 10.90848484 0.92855315 9.7668439 -2.1484375 8.62695312 C-4.0927605 7.90057573 -6.03678137 7.17338901 -7.98046875 6.4453125 C-8.90444458 6.10251755 -9.82842041 5.7597226 -10.78039551 5.40653992 C-11.6346814 5.08313126 -12.48896729 4.7597226 -13.36914062 4.42651367 C-14.12255737 4.14370041 -14.87597412 3.86088715 -15.65222168 3.56950378 C-17.51171875 2.71484375 -17.51171875 2.71484375 -19.51171875 0.71484375 C-13.35478209 -2.85502328 -6.5390469 -2.39304386 0 0 Z " fill="#E1E11D" transform="translate(754.51171875,447.28515625)"/>
<path d="M0 0 C6.73574871 4.19890828 13.23862742 8.53970745 19.58984375 13.30078125 C21.67920828 14.77383404 23.68099137 15.9400355 26 17 C26 17.66 26 18.32 26 19 C17.42 17.35 8.84 15.7 0 14 C0 9.38 0 4.76 0 0 Z " fill="#E01829" transform="translate(7,263)"/>
<path d="M0 0 C1.15224028 0.92961422 2.29659176 1.8690125 3.4375 2.8125 C4.39462891 3.59560547 4.39462891 3.59560547 5.37109375 4.39453125 C7 6 7 6 8 9 C8.61875 9.28875 9.2375 9.5775 9.875 9.875 C12.67920898 11.35958123 13.54723288 13.23974247 15 16 C6.05870856 14.55993623 -2.41105391 11.79194029 -11 9 C-7.50257748 5.4072474 -4.21594467 2.64722107 0 0 Z " fill="#E1E21D" transform="translate(839,372)"/>
<path d="M0 0 C5.80780997 4.18162318 11.22599494 8.71261825 16.63525391 13.38793945 C22.65505295 18.58568338 28.77717815 23.65454114 35.01171875 28.59375 C36.37566885 29.68745357 37.69525287 30.83630661 39 32 C39 32.66 39 33.32 39 34 C24.67461302 28.79076837 12.52676897 16.6263881 2.6875 5.3125 C2.17574219 4.73113281 1.66398437 4.14976562 1.13671875 3.55078125 C0 2 0 2 0 0 Z " fill="#085757" transform="translate(430,489)"/>
<path d="M0 0 C2.14811394 3.22217092 2.63793043 5.53699045 3.33984375 9.2578125 C3.55769531 9.83273437 3.77554688 10.40765625 4 11 C4.99 11.33 5.98 11.66 7 12 C7.103125 12.7425 7.20625 13.485 7.3125 14.25 C8.04253504 17.17014018 9.06789398 18.73187554 11 21 C10.34 21.66 9.68 22.32 9 23 C6 23 6 23 3 22 C2.814375 20.2675 2.814375 20.2675 2.625 18.5 C2.2644041 15.54206839 1.71985887 12.74919783 0.9375 9.875 C0.09394045 6.3882872 -0.17800979 3.56019587 0 0 Z " fill="#0198A5" transform="translate(745,498)"/>
<path d="M0 0 C0 3 0 3 -1.34521484 4.66992188 C-2.26874756 5.5603418 -2.26874756 5.5603418 -3.2109375 6.46875 C-4.21253906 7.44908203 -4.21253906 7.44908203 -5.234375 8.44921875 C-5.94078125 9.12597656 -6.6471875 9.80273438 -7.375 10.5 C-8.75996812 11.84152816 -10.14286845 13.18519518 -11.5234375 14.53125 C-12.14138184 15.12486328 -12.75932617 15.71847656 -13.39599609 16.33007812 C-15.20221192 18.11228596 -15.20221192 18.11228596 -17 21 C-16.00715155 12.01632288 -6.65537135 5.38093854 0 0 Z " fill="#E2D23B" transform="translate(765,196)"/>
<path d="M0 0 C1.3303125 0.37125 1.3303125 0.37125 2.6875 0.75 C1.6975 2.235 1.6975 2.235 0.6875 3.75 C-1.4765625 4.04296875 -1.4765625 4.04296875 -3.9375 3.9375 C-4.75476563 3.91042969 -5.57203125 3.88335937 -6.4140625 3.85546875 C-7.35378906 3.80326172 -7.35378906 3.80326172 -8.3125 3.75 C-4.12788462 -0.31153846 -4.12788462 -0.31153846 0 0 Z " fill="#E1E41F" transform="translate(915.3125,177.25)"/>
<path d="M0 0 C0.66 0 1.32 0 2 0 C0.55746343 3.36591866 -1.33264727 5.51047079 -4 8 C-4.66 7.67 -5.32 7.34 -6 7 C-5.04882866 5.8274869 -4.08882991 4.66212985 -3.125 3.5 C-2.59132813 2.8503125 -2.05765625 2.200625 -1.5078125 1.53125 C-0.76144531 0.77328125 -0.76144531 0.77328125 0 0 Z " fill="#479D8C" transform="translate(730,451)"/>
<path d="M0 0 C3.64553172 1.2808625 5.16671013 2.16671013 8 5 C5.03 4.01 2.06 3.02 -1 2 C-0.67 1.34 -0.34 0.68 0 0 Z " fill="#DED92A" transform="translate(774,461)"/>
<path d="" fill="#93546E" transform="translate(0,0)"/>
</svg>
