<svg xmlns="http://www.w3.org/2000/svg" xmlns:xlink="http://www.w3.org/1999/xlink" width="40" zoomAndPan="magnify" viewBox="0 0 30 30.000001" height="40" preserveAspectRatio="xMidYMid meet" version="1.0"><defs><clipPath id="8443b69359"><path d="M 0.484375 0 L 29.515625 0 L 29.515625 29.03125 L 0.484375 29.03125 Z M 0.484375 0 " clip-rule="nonzero"/></clipPath></defs><g clip-path="url(#8443b69359)"><path fill="#ffffff" d="M 0.484375 0 L 29.515625 0 L 29.515625 29.03125 L 0.484375 29.03125 Z M 0.484375 0 " fill-opacity="1" fill-rule="nonzero"/><path fill="#ffffff" d="M 0.484375 0 L 29.515625 0 L 29.515625 29.03125 L 0.484375 29.03125 Z M 0.484375 0 " fill-opacity="1" fill-rule="nonzero"/></g><path fill="#141312" d="M 23.644531 10.675781 L 23.644531 18.390625 C 23.644531 21.101562 21.464844 23.300781 18.773438 23.300781 L 10.5 23.300781 C 8.15625 23.300781 6.253906 21.382812 6.253906 19.019531 L 6.253906 10.675781 C 6.253906 7.960938 8.433594 5.761719 11.125 5.761719 L 18.773438 5.761719 C 21.464844 5.761719 23.644531 7.960938 23.644531 10.675781 " fill-opacity="1" fill-rule="nonzero"/><path fill="#ffffff" d="M 11.289062 9.683594 C 11.929688 9.683594 12.449219 10.207031 12.449219 10.851562 C 12.449219 11.496094 11.929688 12.019531 11.289062 12.019531 C 10.648438 12.019531 10.132812 11.496094 10.132812 10.851562 C 10.132812 10.207031 10.648438 9.683594 11.289062 9.683594 M 10.289062 12.902344 L 12.289062 12.902344 L 12.289062 19.378906 L 10.289062 19.378906 L 10.289062 12.902344 " fill-opacity="1" fill-rule="nonzero"/><path fill="#ffffff" d="M 13.542969 12.902344 L 15.457031 12.902344 L 15.457031 13.789062 L 15.484375 13.789062 C 15.75 13.277344 16.402344 12.742188 17.371094 12.742188 C 19.390625 12.742188 19.765625 14.082031 19.765625 15.828125 L 19.765625 19.378906 L 17.769531 19.378906 L 17.769531 16.230469 C 17.769531 15.480469 17.757812 14.511719 16.734375 14.511719 C 15.695312 14.511719 15.535156 15.332031 15.535156 16.175781 L 15.535156 19.378906 L 13.542969 19.378906 L 13.542969 12.902344 " fill-opacity="1" fill-rule="nonzero"/></svg>