<svg xmlns="http://www.w3.org/2000/svg" xmlns:xlink="http://www.w3.org/1999/xlink" width="40" zoomAndPan="magnify" viewBox="0 0 30 30.000001" height="40" preserveAspectRatio="xMidYMid meet" version="1.0"><defs><clipPath id="799a5614c8"><path d="M 17 17 L 21 17 L 21 23.515625 L 17 23.515625 Z M 17 17 " clip-rule="nonzero"/></clipPath><clipPath id="8a4ce65b19"><path d="M 5.855469 5.371094 L 24 5.371094 L 24 23.515625 L 5.855469 23.515625 Z M 5.855469 5.371094 " clip-rule="nonzero"/></clipPath><clipPath id="b0146975db"><path d="M 10 18 L 17 18 L 17 23.515625 L 10 23.515625 Z M 10 18 " clip-rule="nonzero"/></clipPath></defs><g clip-path="url(#799a5614c8)"><path fill="#ffffff" d="M 20.128906 23.625 C 20.441406 23.625 20.699219 23.367188 20.699219 23.054688 L 20.699219 18.347656 C 20.699219 18.035156 20.441406 17.777344 20.128906 17.777344 L 18.417969 17.777344 C 18.105469 17.777344 17.847656 18.035156 17.847656 18.347656 L 17.847656 23.054688 C 17.847656 23.367188 18.105469 23.625 18.417969 23.625 Z M 18.417969 18.347656 L 20.128906 18.347656 L 20.128906 18.917969 L 18.417969 18.917969 Z M 18.417969 19.488281 L 20.128906 19.488281 L 20.128906 23.054688 L 18.417969 23.054688 Z M 18.417969 19.488281 " fill-opacity="1" fill-rule="nonzero"/></g><g clip-path="url(#8a4ce65b19)"><path fill="#ffffff" d="M 23.550781 14.925781 L 21.414062 14.925781 L 21.414062 7.082031 C 21.414062 6.140625 20.640625 5.371094 19.703125 5.371094 C 18.84375 5.371094 18.148438 6 18.019531 6.8125 C 17.207031 6.898438 16.5625 7.59375 16.5625 8.4375 L 16.5625 9.078125 C 16.5625 9.390625 16.820312 9.648438 17.132812 9.648438 L 19.417969 9.648438 C 19.730469 9.648438 19.988281 9.390625 19.988281 9.078125 L 19.988281 8.4375 C 19.988281 7.609375 19.375 6.941406 18.589844 6.8125 C 18.71875 6.3125 19.160156 5.941406 19.703125 5.941406 C 20.328125 5.941406 20.84375 6.453125 20.84375 7.082031 L 20.84375 14.925781 L 19.671875 14.925781 L 19.84375 13.269531 C 19.859375 13.113281 19.816406 12.941406 19.703125 12.828125 C 19.601562 12.714844 19.457031 12.65625 19.300781 12.644531 L 19.945312 11.660156 C 20.027344 11.53125 19.988281 11.347656 19.859375 11.261719 C 19.730469 11.175781 19.542969 11.21875 19.457031 11.347656 L 18.703125 12.53125 L 18.703125 11.074219 C 18.703125 10.917969 18.574219 10.789062 18.417969 10.789062 C 18.261719 10.789062 18.132812 10.917969 18.132812 11.074219 L 18.132812 12.515625 L 17.660156 11.773438 C 17.578125 11.644531 17.40625 11.601562 17.261719 11.6875 C 17.132812 11.773438 17.089844 11.945312 17.175781 12.085938 L 17.535156 12.644531 C 17.375 12.644531 17.234375 12.714844 17.132812 12.828125 C 17.019531 12.941406 16.976562 13.113281 16.992188 13.269531 L 17.164062 14.925781 L 12.855469 14.925781 L 12.855469 14.355469 L 14.710938 14.355469 C 15.335938 14.355469 15.851562 13.839844 15.851562 13.214844 L 15.851562 9.222656 C 15.851562 8.59375 15.335938 8.082031 14.710938 8.082031 L 8.722656 8.082031 C 8.09375 8.082031 7.582031 8.59375 7.582031 9.222656 L 7.582031 13.214844 C 7.582031 13.839844 8.09375 14.355469 8.722656 14.355469 L 10.574219 14.355469 L 10.574219 14.925781 L 6.441406 14.925781 C 6.125 14.925781 5.867188 15.183594 5.867188 15.496094 L 5.867188 16.351562 C 5.867188 16.664062 6.125 16.921875 6.441406 16.921875 L 6.726562 16.921875 L 6.726562 23.054688 C 6.726562 23.367188 6.980469 23.625 7.296875 23.625 L 8.152344 23.625 C 8.464844 23.625 8.722656 23.367188 8.722656 23.054688 L 8.722656 16.921875 L 21.269531 16.921875 L 21.269531 23.054688 C 21.269531 23.367188 21.527344 23.625 21.839844 23.625 L 22.695312 23.625 C 23.007812 23.625 23.265625 23.367188 23.265625 23.054688 L 23.265625 16.921875 L 23.550781 16.921875 C 23.863281 16.921875 24.121094 16.664062 24.121094 16.351562 L 24.121094 15.496094 C 24.121094 15.183594 23.863281 14.925781 23.550781 14.925781 Z M 19.417969 8.4375 L 19.417969 9.078125 L 17.132812 9.078125 L 17.132812 8.4375 C 17.132812 7.851562 17.621094 7.367188 18.203125 7.367188 L 18.347656 7.367188 C 18.929688 7.367188 19.417969 7.851562 19.417969 8.4375 Z M 19.273438 13.214844 L 19.089844 14.925781 L 17.734375 14.925781 L 17.5625 13.214844 Z M 8.152344 9.222656 C 8.152344 8.90625 8.40625 8.652344 8.722656 8.652344 L 14.710938 8.652344 C 15.023438 8.652344 15.28125 8.90625 15.28125 9.222656 L 15.28125 12.644531 L 8.152344 12.644531 Z M 8.722656 13.785156 C 8.40625 13.785156 8.152344 13.527344 8.152344 13.214844 L 15.28125 13.214844 C 15.28125 13.527344 15.023438 13.785156 14.710938 13.785156 Z M 12.285156 14.355469 L 12.285156 14.925781 L 11.144531 14.925781 L 11.144531 14.355469 Z M 8.152344 23.054688 L 7.296875 23.054688 L 7.296875 16.921875 L 8.152344 16.921875 Z M 22.695312 23.054688 L 21.839844 23.054688 L 21.839844 16.921875 L 22.695312 16.921875 Z M 23.550781 16.351562 L 6.441406 16.351562 L 6.441406 15.496094 L 23.550781 15.496094 Z M 23.550781 16.351562 " fill-opacity="1" fill-rule="nonzero"/></g><g clip-path="url(#b0146975db)"><path fill="#ffffff" d="M 15.707031 18.488281 L 10.859375 18.488281 C 10.546875 18.488281 10.289062 18.746094 10.289062 19.058594 L 10.289062 20.773438 C 10.289062 21.085938 10.546875 21.34375 10.859375 21.34375 L 12.085938 21.34375 L 11.585938 23.265625 C 11.542969 23.425781 11.644531 23.582031 11.785156 23.609375 C 11.945312 23.652344 12.101562 23.550781 12.128906 23.410156 L 12.671875 21.34375 L 13.898438 21.34375 L 14.4375 23.410156 C 14.46875 23.539062 14.582031 23.625 14.710938 23.625 C 14.738281 23.625 14.753906 23.625 14.78125 23.609375 C 14.9375 23.566406 15.023438 23.410156 14.980469 23.265625 L 14.480469 21.34375 L 15.707031 21.34375 C 16.023438 21.34375 16.277344 21.085938 16.277344 20.773438 L 16.277344 19.058594 C 16.277344 18.746094 16.023438 18.488281 15.707031 18.488281 Z M 15.707031 20.773438 L 10.859375 20.773438 L 10.859375 19.058594 L 15.707031 19.058594 Z M 15.707031 20.773438 " fill-opacity="1" fill-rule="nonzero"/></g></svg>