<svg xmlns="http://www.w3.org/2000/svg" xmlns:xlink="http://www.w3.org/1999/xlink" width="40" zoomAndPan="magnify" viewBox="0 0 30 30.000001" height="40" preserveAspectRatio="xMidYMid meet" version="1.0"><defs><clipPath id="52541013d0"><path d="M 6.945312 4.105469 L 20 4.105469 L 20 22 L 6.945312 22 Z M 6.945312 4.105469 " clip-rule="nonzero"/></clipPath><clipPath id="03ae2fe989"><path d="M 15 14 L 22.914062 14 L 22.914062 22 L 15 22 Z M 15 14 " clip-rule="nonzero"/></clipPath><clipPath id="b81e1ee8b4"><path d="M 17 19 L 22.914062 19 L 22.914062 25 L 17 25 Z M 17 19 " clip-rule="nonzero"/></clipPath></defs><g clip-path="url(#52541013d0)"><path fill="#ffffff" d="M 17.652344 21.34375 C 17.820312 21.34375 17.960938 21.21875 17.976562 21.050781 C 17.960938 21.21875 17.820312 21.34375 17.652344 21.34375 L 8.429688 21.34375 C 7.617188 21.34375 6.949219 20.679688 6.949219 19.867188 L 6.949219 5.585938 C 6.949219 4.769531 7.617188 4.105469 8.429688 4.105469 L 18.347656 4.105469 C 19.164062 4.105469 19.828125 4.769531 19.828125 5.585938 L 19.828125 14.550781 C 19.828125 14.730469 19.683594 14.878906 19.503906 14.878906 C 19.335938 14.878906 19.179688 14.941406 19.066406 15.046875 C 18.953125 15.152344 18.875 15.300781 18.863281 15.46875 C 18.847656 15.648438 18.691406 15.78125 18.511719 15.765625 C 18.433594 15.757812 18.363281 15.722656 18.308594 15.671875 C 18.1875 15.574219 18.035156 15.53125 17.886719 15.535156 C 17.730469 15.542969 17.578125 15.605469 17.457031 15.726562 C 17.335938 15.84375 17.273438 15.996094 17.269531 16.152344 C 17.261719 16.3125 17.3125 16.46875 17.421875 16.597656 C 17.539062 16.730469 17.523438 16.9375 17.386719 17.054688 C 17.328125 17.101562 17.257812 17.128906 17.191406 17.128906 C 17.027344 17.144531 16.882812 17.222656 16.78125 17.335938 C 16.675781 17.449219 16.609375 17.601562 16.609375 17.769531 C 16.609375 17.941406 16.675781 18.09375 16.78125 18.207031 C 16.886719 18.324219 17.035156 18.398438 17.199219 18.414062 L 17.199219 18.410156 C 17.378906 18.425781 17.511719 18.582031 17.5 18.761719 C 17.492188 18.84375 17.457031 18.914062 17.402344 18.964844 C 17.308594 19.089844 17.261719 19.238281 17.269531 19.390625 C 17.273438 19.542969 17.335938 19.699219 17.457031 19.816406 C 17.578125 19.9375 17.730469 20 17.886719 20.007812 C 18.042969 20.011719 18.203125 19.960938 18.328125 19.855469 L 18.328125 19.851562 C 18.464844 19.738281 18.667969 19.753906 18.785156 19.890625 C 18.835938 19.945312 18.859375 20.015625 18.863281 20.085938 C 18.871094 20.183594 18.902344 20.273438 18.949219 20.351562 C 19 20.4375 19.070312 20.507812 19.152344 20.5625 C 19.304688 20.660156 19.34375 20.859375 19.25 21.011719 C 19.152344 21.160156 18.949219 21.203125 18.800781 21.105469 C 18.632812 20.996094 18.496094 20.851562 18.394531 20.683594 C 18.375 20.648438 18.355469 20.617188 18.339844 20.582031 C 18.234375 20.617188 18.125 20.640625 18.011719 20.652344 M 17.359375 20.695312 L 17.375 20.539062 C 17.238281 20.476562 17.109375 20.386719 17 20.277344 C 16.761719 20.039062 16.632812 19.730469 16.621094 19.414062 C 16.613281 19.253906 16.640625 19.089844 16.691406 18.9375 C 16.546875 18.863281 16.414062 18.765625 16.300781 18.644531 C 16.089844 18.414062 15.960938 18.109375 15.960938 17.769531 C 15.960938 17.433594 16.089844 17.125 16.300781 16.894531 C 16.414062 16.777344 16.546875 16.675781 16.691406 16.605469 C 16.640625 16.453125 16.613281 16.289062 16.621094 16.128906 C 16.632812 15.8125 16.761719 15.503906 17 15.265625 C 17.234375 15.027344 17.546875 14.902344 17.859375 14.890625 C 18.019531 14.882812 18.183594 14.90625 18.339844 14.960938 C 18.410156 14.8125 18.507812 14.679688 18.628906 14.570312 C 18.78125 14.429688 18.96875 14.324219 19.179688 14.269531 L 19.179688 5.585938 C 19.179688 5.128906 18.804688 4.753906 18.347656 4.753906 L 8.429688 4.753906 C 7.972656 4.753906 7.597656 5.128906 7.597656 5.585938 L 7.597656 19.867188 C 7.597656 20.320312 7.972656 20.695312 8.429688 20.695312 Z M 17.359375 20.695312 " fill-opacity="1" fill-rule="nonzero"/></g><g clip-path="url(#03ae2fe989)"><path fill="#ffffff" d="M 18.339844 14.960938 C 18.410156 14.8125 18.507812 14.679688 18.628906 14.570312 C 18.859375 14.359375 19.167969 14.226562 19.503906 14.226562 C 19.839844 14.226562 20.148438 14.359375 20.378906 14.570312 C 20.5 14.679688 20.597656 14.8125 20.667969 14.960938 C 20.824219 14.90625 20.984375 14.882812 21.148438 14.890625 C 21.460938 14.902344 21.769531 15.027344 22.007812 15.265625 C 22.246094 15.503906 22.375 15.8125 22.386719 16.128906 C 22.390625 16.289062 22.367188 16.453125 22.3125 16.605469 C 22.460938 16.675781 22.59375 16.777344 22.703125 16.894531 C 22.917969 17.125 23.046875 17.433594 23.046875 17.769531 C 23.046875 18.109375 22.917969 18.414062 22.703125 18.644531 C 22.59375 18.765625 22.460938 18.863281 22.3125 18.9375 C 22.367188 19.089844 22.390625 19.253906 22.386719 19.414062 C 22.375 19.730469 22.246094 20.039062 22.007812 20.277344 C 21.769531 20.515625 21.460938 20.640625 21.148438 20.652344 C 20.984375 20.660156 20.824219 20.636719 20.667969 20.582031 C 20.597656 20.730469 20.5 20.863281 20.378906 20.972656 C 20.148438 21.183594 19.839844 21.316406 19.503906 21.316406 C 19.167969 21.316406 18.859375 21.183594 18.628906 20.972656 C 18.507812 20.863281 18.410156 20.730469 18.339844 20.582031 C 18.183594 20.636719 18.019531 20.660156 17.859375 20.652344 C 17.546875 20.640625 17.238281 20.515625 17 20.277344 C 16.761719 20.039062 16.632812 19.730469 16.621094 19.414062 C 16.613281 19.253906 16.640625 19.089844 16.691406 18.9375 C 16.546875 18.863281 16.414062 18.765625 16.300781 18.644531 C 16.089844 18.414062 15.960938 18.109375 15.960938 17.769531 C 15.960938 17.433594 16.089844 17.125 16.300781 16.894531 C 16.414062 16.777344 16.546875 16.675781 16.691406 16.605469 C 16.640625 16.453125 16.613281 16.289062 16.621094 16.128906 C 16.632812 15.8125 16.761719 15.503906 17 15.265625 C 17.234375 15.027344 17.546875 14.902344 17.859375 14.890625 C 18.019531 14.882812 18.183594 14.90625 18.339844 14.960938 Z M 19.066406 15.046875 C 18.953125 15.152344 18.878906 15.296875 18.863281 15.457031 C 18.859375 15.527344 18.835938 15.59375 18.785156 15.652344 C 18.667969 15.789062 18.464844 15.804688 18.328125 15.6875 C 18.203125 15.582031 18.042969 15.53125 17.886719 15.535156 C 17.730469 15.542969 17.578125 15.605469 17.457031 15.726562 C 17.335938 15.84375 17.273438 15.996094 17.269531 16.152344 C 17.261719 16.300781 17.308594 16.453125 17.402344 16.578125 C 17.457031 16.628906 17.492188 16.699219 17.5 16.78125 C 17.511719 16.960938 17.378906 17.117188 17.199219 17.128906 C 17.035156 17.144531 16.886719 17.21875 16.78125 17.335938 C 16.675781 17.449219 16.609375 17.601562 16.609375 17.769531 C 16.609375 17.941406 16.675781 18.09375 16.78125 18.207031 C 16.882812 18.320312 17.027344 18.394531 17.191406 18.410156 C 17.257812 18.414062 17.328125 18.441406 17.386719 18.488281 C 17.523438 18.605469 17.539062 18.808594 17.421875 18.945312 C 17.3125 19.070312 17.261719 19.230469 17.269531 19.390625 C 17.273438 19.542969 17.335938 19.699219 17.457031 19.816406 C 17.578125 19.9375 17.730469 20 17.886719 20.007812 C 18.035156 20.011719 18.1875 19.96875 18.308594 19.871094 C 18.363281 19.816406 18.433594 19.78125 18.511719 19.777344 C 18.691406 19.761719 18.847656 19.894531 18.863281 20.074219 C 18.875 20.242188 18.953125 20.390625 19.066406 20.496094 C 19.179688 20.601562 19.335938 20.664062 19.503906 20.664062 C 19.671875 20.664062 19.824219 20.601562 19.941406 20.496094 C 20.054688 20.390625 20.128906 20.246094 20.144531 20.085938 C 20.148438 20.015625 20.171875 19.945312 20.222656 19.890625 C 20.335938 19.753906 20.542969 19.738281 20.679688 19.851562 L 20.679688 19.855469 C 20.804688 19.960938 20.964844 20.011719 21.121094 20.007812 C 21.277344 20 21.429688 19.9375 21.550781 19.816406 C 21.667969 19.699219 21.734375 19.542969 21.738281 19.390625 C 21.746094 19.238281 21.699219 19.089844 21.605469 18.964844 C 21.550781 18.914062 21.515625 18.84375 21.507812 18.761719 C 21.496094 18.582031 21.628906 18.425781 21.808594 18.414062 C 21.972656 18.398438 22.121094 18.324219 22.226562 18.207031 C 22.332031 18.09375 22.398438 17.941406 22.398438 17.769531 C 22.398438 17.601562 22.332031 17.449219 22.226562 17.335938 C 22.125 17.222656 21.980469 17.144531 21.816406 17.128906 C 21.75 17.128906 21.679688 17.101562 21.621094 17.054688 C 21.484375 16.9375 21.46875 16.730469 21.585938 16.597656 C 21.695312 16.46875 21.746094 16.3125 21.738281 16.152344 C 21.734375 15.996094 21.667969 15.84375 21.550781 15.726562 C 21.429688 15.605469 21.277344 15.542969 21.121094 15.535156 C 20.972656 15.53125 20.820312 15.574219 20.699219 15.671875 C 20.644531 15.722656 20.574219 15.757812 20.496094 15.765625 C 20.316406 15.78125 20.160156 15.648438 20.144531 15.46875 C 20.132812 15.300781 20.054688 15.152344 19.941406 15.046875 C 19.824219 14.941406 19.671875 14.878906 19.503906 14.878906 C 19.335938 14.878906 19.179688 14.941406 19.066406 15.046875 Z M 19.066406 15.046875 " fill-opacity="1" fill-rule="nonzero"/></g><path fill="#ffffff" d="M 19.503906 16.273438 C 19.917969 16.273438 20.292969 16.441406 20.5625 16.710938 C 20.832031 16.984375 21 17.359375 21 17.769531 C 21 18.597656 20.328125 19.269531 19.503906 19.269531 C 19.089844 19.269531 18.714844 19.101562 18.445312 18.828125 C 18.175781 18.558594 18.007812 18.183594 18.007812 17.769531 C 18.007812 16.945312 18.679688 16.273438 19.503906 16.273438 Z M 20.101562 17.171875 C 19.949219 17.019531 19.738281 16.921875 19.503906 16.921875 C 19.035156 16.921875 18.65625 17.300781 18.65625 17.769531 C 18.65625 18.003906 18.75 18.21875 18.90625 18.371094 C 19.058594 18.523438 19.269531 18.617188 19.503906 18.617188 C 19.972656 18.617188 20.351562 18.242188 20.351562 17.769531 C 20.351562 17.535156 20.257812 17.324219 20.101562 17.171875 Z M 20.101562 17.171875 " fill-opacity="1" fill-rule="nonzero"/><g clip-path="url(#b81e1ee8b4)"><path fill="#ffffff" d="M 18.042969 20.339844 C 18.058594 20.164062 17.925781 20.003906 17.75 19.988281 C 17.570312 19.972656 17.414062 20.105469 17.398438 20.28125 L 17 24.535156 C 16.984375 24.714844 17.113281 24.871094 17.292969 24.890625 C 17.394531 24.898438 17.492188 24.859375 17.558594 24.792969 L 19.503906 23.085938 L 21.46875 24.808594 C 21.605469 24.929688 21.808594 24.914062 21.929688 24.78125 C 21.996094 24.703125 22.019531 24.601562 22.003906 24.507812 L 21.609375 20.28125 C 21.59375 20.105469 21.4375 19.972656 21.257812 19.988281 C 21.082031 20.003906 20.949219 20.164062 20.964844 20.339844 L 21.285156 23.785156 L 19.738281 22.429688 C 19.617188 22.304688 19.421875 22.296875 19.289062 22.410156 L 17.722656 23.785156 Z M 18.042969 20.339844 " fill-opacity="1" fill-rule="nonzero"/></g><path fill="#ffffff" d="M 9.921875 18.226562 C 9.960938 18.402344 10.136719 18.511719 10.3125 18.46875 C 10.484375 18.425781 10.59375 18.253906 10.550781 18.078125 C 10.550781 18.078125 10.453125 17.683594 10.765625 17.210938 C 10.773438 17.488281 10.824219 17.761719 10.960938 17.933594 C 11.542969 18.660156 11.96875 17.8125 11.96875 17.808594 C 11.976562 17.800781 11.980469 17.789062 11.984375 17.777344 C 12.011719 17.734375 12.125 17.582031 12.429688 17.828125 C 12.4375 17.835938 12.449219 17.839844 12.457031 17.847656 C 12.625 17.980469 13.667969 18.753906 13.667969 17.640625 C 13.667969 17.625 13.667969 17.605469 13.664062 17.589844 L 13.578125 16.828125 C 13.558594 16.652344 13.398438 16.523438 13.21875 16.542969 C 13.042969 16.5625 12.914062 16.722656 12.933594 16.902344 L 13.019531 17.652344 C 13.015625 17.707031 12.988281 17.675781 12.957031 17.613281 C 12.96875 17.503906 12.929688 17.394531 12.839844 17.324219 L 12.835938 17.324219 C 12 16.648438 11.5625 17.21875 11.425781 17.449219 C 11.339844 17.183594 11.460938 16.570312 11.484375 16.460938 C 11.507812 16.375 11.492188 16.277344 11.4375 16.195312 C 11.335938 16.046875 11.136719 16.007812 10.988281 16.109375 C 9.625 17.035156 9.921875 18.222656 9.921875 18.226562 Z M 9.921875 18.226562 " fill-opacity="1" fill-rule="nonzero"/><path fill="#ffffff" d="M 9.75 18.867188 C 9.570312 18.867188 9.425781 19.015625 9.425781 19.191406 C 9.425781 19.371094 9.570312 19.519531 9.75 19.519531 L 13.808594 19.519531 C 13.988281 19.519531 14.136719 19.371094 14.136719 19.191406 C 14.136719 19.015625 13.988281 18.867188 13.808594 18.867188 Z M 9.75 18.867188 " fill-opacity="1" fill-rule="nonzero"/><path fill="#ffffff" d="M 10.796875 5.558594 L 11.214844 6.308594 L 12.089844 6.164062 C 12.269531 6.132812 12.4375 6.253906 12.464844 6.429688 C 12.476562 6.5 12.464844 6.570312 12.433594 6.628906 L 12.105469 7.425781 L 12.769531 8.023438 L 12.769531 8.019531 C 12.902344 8.140625 12.914062 8.347656 12.792969 8.480469 C 12.746094 8.535156 12.683594 8.566406 12.617188 8.582031 L 11.789062 8.820312 L 11.738281 9.707031 L 11.738281 9.710938 C 11.726562 9.886719 11.574219 10.023438 11.394531 10.015625 C 11.324219 10.011719 11.261719 9.984375 11.210938 9.945312 L 10.5 9.441406 L 9.773438 9.957031 C 9.628906 10.058594 9.425781 10.023438 9.324219 9.878906 C 9.28125 9.820312 9.261719 9.753906 9.261719 9.6875 L 9.210938 8.820312 L 8.359375 8.574219 C 8.1875 8.523438 8.085938 8.34375 8.136719 8.171875 C 8.15625 8.105469 8.195312 8.050781 8.246094 8.007812 L 8.894531 7.425781 L 8.554688 6.605469 C 8.488281 6.441406 8.566406 6.25 8.730469 6.183594 C 8.796875 6.15625 8.867188 6.152344 8.929688 6.167969 L 9.785156 6.308594 L 10.21875 5.535156 L 10.214844 5.53125 C 10.304688 5.375 10.5 5.320312 10.65625 5.40625 C 10.722656 5.441406 10.769531 5.496094 10.796875 5.558594 Z M 10.761719 6.824219 L 10.5 6.355469 L 10.253906 6.800781 C 10.195312 6.933594 10.050781 7.011719 9.902344 6.988281 L 9.375 6.898438 L 9.570312 7.367188 C 9.636719 7.496094 9.609375 7.65625 9.496094 7.757812 L 9.097656 8.113281 L 9.585938 8.257812 C 9.726562 8.285156 9.835938 8.40625 9.847656 8.554688 L 9.847656 8.558594 L 9.875 9.089844 L 10.296875 8.792969 C 10.40625 8.703125 10.566406 8.695312 10.6875 8.78125 L 11.125 9.089844 L 11.152344 8.578125 C 11.148438 8.234375 11.652344 8.1875 11.902344 8.113281 L 11.519531 7.769531 C 11.40625 7.683594 11.363281 7.53125 11.417969 7.394531 L 11.421875 7.394531 L 11.625 6.898438 L 11.117188 6.984375 C 10.980469 7.015625 10.832031 6.957031 10.757812 6.824219 Z M 10.761719 6.824219 " fill-opacity="1" fill-rule="nonzero"/><path fill="#ffffff" d="M 14.585938 6.808594 C 14.40625 6.808594 14.261719 6.957031 14.261719 7.136719 C 14.261719 7.316406 14.40625 7.460938 14.585938 7.460938 L 17.730469 7.460938 C 17.910156 7.460938 18.054688 7.316406 18.054688 7.136719 C 18.054688 6.957031 17.910156 6.808594 17.730469 6.808594 Z M 14.585938 6.808594 " fill-opacity="1" fill-rule="nonzero"/><path fill="#ffffff" d="M 14.585938 8.6875 C 14.40625 8.6875 14.261719 8.832031 14.261719 9.011719 C 14.261719 9.191406 14.40625 9.335938 14.585938 9.335938 L 17.730469 9.335938 C 17.910156 9.335938 18.054688 9.191406 18.054688 9.011719 C 18.054688 8.832031 17.910156 8.6875 17.730469 8.6875 Z M 14.585938 8.6875 " fill-opacity="1" fill-rule="nonzero"/><path fill="#ffffff" d="M 9.410156 11.125 C 9.230469 11.125 9.085938 11.269531 9.085938 11.449219 C 9.085938 11.628906 9.230469 11.773438 9.410156 11.773438 L 17.78125 11.773438 C 17.960938 11.773438 18.105469 11.628906 18.105469 11.449219 C 18.105469 11.269531 17.960938 11.125 17.78125 11.125 Z M 9.410156 11.125 " fill-opacity="1" fill-rule="nonzero"/><path fill="#ffffff" d="M 9.410156 12.835938 C 9.230469 12.835938 9.085938 12.980469 9.085938 13.160156 C 9.085938 13.339844 9.230469 13.484375 9.410156 13.484375 L 17.78125 13.484375 C 17.960938 13.484375 18.105469 13.339844 18.105469 13.160156 C 18.105469 12.980469 17.960938 12.835938 17.78125 12.835938 Z M 9.410156 12.835938 " fill-opacity="1" fill-rule="nonzero"/><path fill="#ffffff" d="M 9.410156 14.574219 C 9.230469 14.574219 9.085938 14.71875 9.085938 14.898438 C 9.085938 15.078125 9.230469 15.222656 9.410156 15.222656 L 12.554688 15.222656 C 12.734375 15.222656 12.878906 15.078125 12.878906 14.898438 C 12.878906 14.71875 12.734375 14.574219 12.554688 14.574219 Z M 9.410156 14.574219 " fill-opacity="1" fill-rule="nonzero"/></svg>