<svg xmlns="http://www.w3.org/2000/svg" xmlns:xlink="http://www.w3.org/1999/xlink" width="40" zoomAndPan="magnify" viewBox="0 0 30 30.000001" height="40" preserveAspectRatio="xMidYMid meet" version="1.0"><defs><clipPath id="917c0bffdd"><path d="M 0.484375 0 L 29.515625 0 L 29.515625 29.03125 L 0.484375 29.03125 Z M 0.484375 0 " clip-rule="nonzero"/></clipPath></defs><g clip-path="url(#917c0bffdd)"><path fill="#ffffff" d="M 0.484375 0 L 29.515625 0 L 29.515625 29.03125 L 0.484375 29.03125 Z M 0.484375 0 " fill-opacity="1" fill-rule="nonzero"/><path fill="#ffffff" d="M 0.484375 0 L 29.515625 0 L 29.515625 29.03125 L 0.484375 29.03125 Z M 0.484375 0 " fill-opacity="1" fill-rule="nonzero"/></g><path fill="#141312" d="M 23.5 10.855469 L 23.5 18.496094 C 23.5 21.230469 21.304688 23.445312 18.59375 23.445312 L 11.015625 23.445312 C 8.304688 23.445312 6.109375 21.230469 6.109375 18.496094 L 6.109375 10.855469 C 6.109375 8.125 8.304688 5.910156 11.015625 5.910156 L 18.59375 5.910156 C 21.304688 5.910156 23.5 8.125 23.5 10.855469 " fill-opacity="1" fill-rule="nonzero"/><path fill="#fcfcfd" d="M 14.632812 15.398438 L 14.246094 14.832031 L 11.253906 10.417969 L 12.523438 10.417969 L 14.960938 13.984375 L 15.347656 14.550781 L 18.347656 18.9375 L 17.027344 18.9375 Z M 15.757812 14.0625 L 15.371094 13.496094 L 12.84375 9.800781 L 10.09375 9.800781 L 13.835938 15.320312 L 14.21875 15.886719 L 16.703125 19.554688 L 19.515625 19.554688 L 15.757812 14.0625 " fill-opacity="1" fill-rule="nonzero"/><path fill="#fcfcfd" d="M 14.246094 14.832031 L 14.632812 15.398438 L 14.21875 15.886719 L 11.128906 19.554688 L 10.257812 19.554688 L 13.835938 15.320312 L 14.246094 14.832031 " fill-opacity="1" fill-rule="nonzero"/><path fill="#fcfcfd" d="M 19.351562 9.800781 L 15.757812 14.0625 L 15.347656 14.550781 L 14.960938 13.984375 L 15.371094 13.496094 L 18.496094 9.800781 L 19.351562 9.800781 " fill-opacity="1" fill-rule="nonzero"/></svg>